<?xml version="1.0" standalone="no"?>
<!DOCTYPE svg PUBLIC "-//W3C//DTD SVG 1.1//EN" "http://www.w3.org/Graphics/SVG/1.1/DTD/svg11.dtd" >
<svg>
<metadata>
Created by FontForge 20110222 at Mon Feb 16 09:05:02 2015
 By www-data
Typeface (c) (your company). 2013. All Rights Reserved
</metadata>
<defs>
<font id="BeachResort" horiz-adv-x="972" >
  <font-face 
    font-family="Beach Resort"
    font-weight="400"
    font-stretch="normal"
    units-per-em="2003"
    panose-1="2 0 5 0 0 0 0 0 0 0"
    ascent="1602"
    descent="-401"
    x-height="834"
    cap-height="1466"
    bbox="-126.029 -630.778 1840 1829.88"
    underline-thickness="150"
    underline-position="-142"
    unicode-range="U+0020-F002"
  />
    <missing-glyph />
    <glyph glyph-name="space" unicode=" " horiz-adv-x="361" 
 />
    <glyph glyph-name="space" unicode="&#xa0;" horiz-adv-x="361" 
 />
    <glyph glyph-name="exclam" unicode="!" horiz-adv-x="403" 
d="M116 1468h15q143 27 253 -56v-15q-25 -74 -71 -339q-55 -139 -139 -674l-10 -4h-10q-99 0 -102.5 266t30.5 446v35q0 39 35 167q15 52 15 88v15q0 10 -26 55v6q1 10 10 10zM181 236q25 -26 25 -64q0 -37 -25 -63.5t-61 -26.5t-61 26.5t-25 63.5q0 38 25 64t61 26t61 -26z
" />
    <glyph glyph-name="quotedbl" unicode="&#x22;" horiz-adv-x="500" 
d="M92 1473h9q88 9 155 -20v-5q-15 -26 -43 -118q-34 -48 -86 -233l-6 -1h-6q-61 0 -63 92t19 154v12q0 14 22 58q8 18 8 31v5q0 3 -16 20v1q1 4 7 4zM291 1468h9q88 10 155 -20v-5q-15 -26 -43 -118q-34 -48 -86 -233l-6 -1h-6q-61 0 -63 92.5t19 154.5v11q0 15 22 58
q8 19 8 31v5q0 4 -16 20v1q1 4 7 4z" />
    <glyph glyph-name="numbersign" unicode="#" horiz-adv-x="1467" 
d="M330 580q5 213 28 375q-154 14 -345 27l-6 9l-1 11q-6 103 347 126q11 0 22 1q8 46 22 108q15 70 15 118v19q0 14 -27 74v7q2 14 11 14h15q149 36 263 -75v-20q-17 -64 -43 -236q150 2 273 -7q9 45 22 106q15 70 15 118v19q0 14 -27 74v7q2 14 11 14h15q149 36 263 -75
v-20q-18 -68 -47 -259q28 -5 60 -10q24 -11 72 -9l19 1q14 1 72 31h7q14 0 15 -9l1 -16q43 -146 -61 -266l-20 -1q-68 14 -207 31q-24 -100 -53 -283q61 -5 131 -23q71 -12 119 -9l19 1q13 1 72 31h7q14 0 14 -9l1 -16q44 -147 -61 -266l-20 -1q-86 17 -319 42
q-19 -138 -39 -305l-10 -6h-11q-99 0 -106 334q-124 21 -354 43q-22 -163 -48 -371l-10 -6h-11q-102 0 -106 354v39q-133 11 -293 22l-7 9v11q-6 95 301 122zM601 932q0 -4 -1 -8q-30 -96 -67 -333q180 7 326 0q5 167 20 302q-95 19 -278 39z" />
    <glyph glyph-name="dollar" unicode="$" horiz-adv-x="1200" 
d="M757 606q-14 -135 -29 -306q161 50 161 129q0 60 -132 177zM614 1235q-94 -47 -94 -111v-26q0 -47 79 -116q3 43 7 84v62q0 34 8 107zM854 1477q62 -2 103 -17q45 -14 102 -174v-11q0 -24 -143 22q-36 5 -81 0q-12 -124 -26 -291q-12 -62 -26 -170q370 -315 370 -463
q0 -106 -151 -217q-161 -77 -264 -78q0 -5 -30 -10q-10 -123 -21 -262l-9 -6h-8q-64 0 -83 255q-22 -2 -48 -4q-228 -12 -355 32q-137 47 -184 188v74q37 104 98 148q121 116 253 71l71 -23q7 -4 7 -12v-3q0 -34 -105 -104q-43 -38 -64 -76v-29q1 -15 45 -42q61 -20 274 -1
q-1 256 7 467q-43 31 -92 65q-7 8 -102 87q-143 139 -143 249v7q0 216 392 310q9 71 9 123v27q0 18 -23 98v11q2 18 9 18h13q125 48 222 -100v-27q-7 -46 -17 -132z" />
    <glyph glyph-name="percent" unicode="%" horiz-adv-x="1218" 
d="M206 1439h19q138 -36 226 -144q62 -71 62 -179q0 -177 -140 -300q-72 -31 -105 -31q-97 0 -176 86q-34 61 -34 70h-8v-4l-8 54q6 106 78 226q75 78 128 78q74 0 133 -81v-12q0 -39 -27 -39q-22 0 -59 7q-47 0 -66 -144q0 -51 42 -85h4q39 0 102 101q31 57 31 89v55
q-10 59 -62 121q-33 44 -148 70q-16 12 -16 23q0 26 24 39zM751 1380l14 -5q148 -15 214 -157l-6 -19q-57 -84 -220 -399q-115 -155 -436 -794l-11 -3l-10 4q-94 34 22.5 367.5t230.5 546.5l15 44q18 50 109 196q38 61 54 106l7 18q4 13 0 79l2 6q7 13 15 10zM817 658h19
q138 -36 226 -144q62 -71 62 -179q0 -177 -140 -300q-72 -31 -105 -31q-97 0 -176 86q-34 61 -34 70h-8v-4l-8 54q6 106 78 226q75 78 128 78q74 0 133 -81v-12q0 -39 -27 -39q-22 0 -59 7q-47 0 -66 -144q0 -51 42 -85h4q39 0 102 101q31 57 31 89v55q-10 59 -62 121
q-33 44 -148 70q-16 12 -16 23q0 26 24 39z" />
    <glyph glyph-name="ampersand" unicode="&#x26;" horiz-adv-x="1126" 
d="M417 56q-30 13 -61 28q-148 78 -143 87q-80 34 -165 157q-57 151 2 249q55 93 286 203q-21 10 -50 23q-143 83 -142 185v7q1 212 250 370q104 67 210 92q19 77 23 132l3 27q2 18 -17 98l1 11q2 18 11 18h15q148 48 244 -100l-2 -27q-14 -52 -37 -156q26 -5 53 -13
q110 -48 122 -187v-11q-61 -69 -134 14q-38 16 -77 23q-24 -119 -53 -275q-58 -187 -169 -775q50 -19 78 -19q49 11 59 24l17 28q3 41 -9 91q-44 98 -26 129l2 4q4 6 13 7h69q129 0 160 -147q23 -60 -5 -168l-41 -70q-115 -115 -250 -115q-50 0 -108 14q-18 -98 -37 -206
l-11 -8h-10q-73 0 -71 256zM463 623q-143 -26 -174 -78q-51 -86 95 -206q25 -14 48 -27q14 165 31 311zM497 878q16 103 34 194l5 62q4 36 20 115q-141 -108 -141 -191q-10 -111 82 -180z" />
    <glyph glyph-name="quotesingle" unicode="'" horiz-adv-x="281" 
d="M92 1473h9q88 8 155 -16v-4q-15 -21 -43 -95q-34 -39 -86 -188l-6 -1h-6q-61 0 -63 74.5t19 124.5v9q0 12 22 47q8 15 8 25v4q0 3 -16 16v1q1 3 7 3z" />
    <glyph glyph-name="parenleft" unicode="(" horiz-adv-x="682" 
d="M479 -431q-149 188 -252 440t-103 522q0 238 77 456q90 253 278 504h129q-121 -208 -160 -297q-61 -138 -96 -288q-43 -187 -43 -376q0 -481 299 -961h-129z" />
    <glyph glyph-name="parenright" unicode=")" horiz-adv-x="682" 
d="M253 -431h-129q299 480 299 961q0 188 -43 373q-34 150 -95 288q-39 90 -161 300h129q188 -251 278 -504q77 -218 77 -456q0 -270 -103.5 -522t-251.5 -440z" />
    <glyph glyph-name="asterisk" unicode="*" horiz-adv-x="661" 
d="M426 1224q31 -30 31 -73t-31 -73t-75 -30q-45 0 -76 30t-31 73t31 73t76 30q44 0 75 -30zM222 1218l-133 82l66 109l125 -134zM389 1283l149 134l80 -109l-159 -82zM267 1029l-106 -86l-67 83l133 62zM464 1082l159 -62l-79 -83l-134 89z" />
    <glyph glyph-name="plus" unicode="+" horiz-adv-x="1196" 
d="M513 237v402h-399v168h399v399h170v-399h399v-168h-399v-402h-170z" />
    <glyph glyph-name="comma" unicode="," horiz-adv-x="306" 
d="M88 125h9q88 8 155 -16v-4q-15 -21 -43 -95q-34 -39 -86 -188l-6 -1h-6q-61 0 -63 74.5t19 124.5v9q0 12 22 47q8 15 8 25v4q0 3 -16 16v1q1 3 7 3z" />
    <glyph glyph-name="hyphen" unicode="-" horiz-adv-x="670" 
d="M489 726l5 -11q58 -102 60 -194l-6 -2q-38 9 -160 11q-74 23 -318 19l-4 7l-4 7q-32 73 74.5 109t189.5 33l14 4q16 5 79 -5q26 -5 41 0l6 2q4 1 14 26h2q5 1 7 -6z" />
    <glyph glyph-name="hyphen" unicode="&#xad;" horiz-adv-x="670" 
d="M489 726l5 -11q58 -102 60 -194l-6 -2q-38 9 -160 11q-74 23 -318 19l-4 7l-4 7q-32 73 74.5 109t189.5 33l14 4q16 5 79 -5q26 -5 41 0l6 2q4 1 14 26h2q5 1 7 -6z" />
    <glyph glyph-name="period" unicode="." horiz-adv-x="374" 
d="M185 267h21q77 0 95 -111v-5q0 -83 -100 -90q-73 0 -111 100v21q0 68 95 85z" />
    <glyph glyph-name="slash" unicode="/" horiz-adv-x="781" 
d="M517 1380l15 -5q148 -15 214 -157l-7 -19q-56 -84 -220 -399q-114 -155 -436 -794l-11 -3l-9 4q-94 34 22.5 367.5t230.5 546.5l15 44q18 50 109 196q38 61 54 106l6 18q5 13 1 79l2 6q6 13 14 10z" />
    <glyph glyph-name="zero" unicode="0" horiz-adv-x="900" 
d="M535 1091.5q-58 -15.5 -154.5 -50t-139.5 -502.5q0 -167 99 -279h10q88 0 234 329q71 183 71 291q0 177 -31 202t-89 9.5zM754 1212q115 -161 115 -406q0 -402 -259 -680q-133 -71 -194 -71q-178 0 -323 194q-65 139 -65 159h-13v-8l-15 123q12 239 144 513
q138 176 305 280t305 -104z" />
    <glyph glyph-name="one" unicode="1" horiz-adv-x="500" 
d="M81 1457h18q232 45 370 -66v-20q-31 -98 -89 -450q-69 -185 -175 -895l-12 -6h-13q-124 0 -128.5 353.5t38.5 521.5v46q0 53 44 222q19 70 19 118v19q0 14 -153 -14v43q0 128 81 128z" />
    <glyph glyph-name="two" unicode="2" horiz-adv-x="1159" 
d="M202 444q38 84 133 178q95 81 103 91q393 280 404 395q9 102 -190 173q-265 50 -334 27q-43 -28 -46 -44l-3 -33q16 -42 51 -87q91 -82 87 -119v-5q-1 -7 -8 -10l-69 -24q-125 -42 -226 92q-51 52 -75 168l8 83q58 153 190 197q121 42 330 16q183 -27 182 -39
q94 -7 235 -101q128 -129 117 -246q-17 -181 -472 -562q-81 -57 -126 -104q-151 -224 483 -208q216 -148 123.5 -244t-196.5 -54q-942 -24 -901 217q108 136 200 243z" />
    <glyph glyph-name="three" unicode="3" horiz-adv-x="1024" 
d="M541 773q170 82 189 238q21 96 -111 224q-165 84 -351 11q-99 -95 -149 -16l2 12q47 160 179 214q296 87 528.5 -93.5t181.5 -423.5l-2 -8q-23 -117 -199 -212q-35 -15 -60 -26q224 -126 262 -233q41 -112 -58 -284q-122 -141 -217 -180q3 -11 -177 -100
q-209 -96 -344 -96q-147 0 -244 132l-28 80q-4 123 35 192q70 168 210 168h75q9 -1 12 -8l2 -4q12 -36 -60 -148q-25 -57 -32 -104l12 -32q8 -15 58 -28q76 0 335 140q189 138 154 236q-25 66 -207 95.5t-174 100.5t178 153z" />
    <glyph glyph-name="four" unicode="4" horiz-adv-x="1128" 
d="M600 503q-479 -88 -516 49q-31 108 -33 310l37 341q20 86 20 146v23q0 17 -36 91v9q2 17 14 17h21q198 44 350 -92v-25q-34 -121 -158 -677q12 4 25 9q149 21 288 37q10 111 28 205v46q0 53 46 222q20 70 20 118v19q0 14 -34 74v7q1 14 13 14h20q189 36 334 -75v-20
q-33 -98 -94 -450q-18 -47 -39 -127q25 3 44 9l12 4q10 3 69.5 8t16.5 -237l-13 -4q-50 2 -181 -12q-43 -214 -93 -536l-13 -6h-13q-131 0 -135 354q-1 77 0 149z" />
    <glyph glyph-name="five" unicode="5" horiz-adv-x="1235" 
d="M1027 1525q48 0 108 -148v-12q0 -25 -152 -28q-87 -20 -383 -37q-37 -195 -37 -291l-10 -109q10 6 202 -59q480 -225 480 -400q0 -112 -160 -284q-171 -141 -280 -180q0 -11 -212 -100q-242 -96 -376 -96q-146 0 -196 132v80q40 123 104 192q129 168 268 168h76
q8 -1 8 -8v-4q0 -36 -112 -148q-45 -57 -68 -104v-32q2 -15 48 -28q76 0 384 140q236 138 236 236q0 111 -420 256q-8 7 -108 56q-161 23 -152 212v8q25 602 163 563q496 25 589 25z" />
    <glyph glyph-name="six" unicode="6" horiz-adv-x="942" 
d="M366 682.5q-90 -35.5 -70 -364.5q23 -117 135 -182l10 1q86 11 185 257q45 136 31 210q-24 123 -58 136.5t-88.5 -4.5t-144.5 -53.5zM342 846q27 18 54 35q150 93 313 -34q135 -97 168 -267q54 -279 -163 -503q-121 -66 -181 -74q-174 -22 -343 95q-82 88 -85 102l-13 -2
l1 -5l-31 83q-84 791 449 1075q182 113 273 124q47 6 115 -136l1 -12q2 -25 -148 -47q-84 -31 -209 -132q-189 -154 -182 -251q-10 -27 -19 -51z" />
    <glyph glyph-name="seven" unicode="7" horiz-adv-x="1177" 
d="M325.5 15q-142.5 -18 -180 113.5t308.5 551.5t395.5 506t-267 50t-463.5 -5t-60.5 132t139.5 83.5t522.5 22.5t443.5 -203q-483 -688 -535 -777t-106.5 -272.5t-197 -201.5z" />
    <glyph glyph-name="eight" unicode="8" horiz-adv-x="1336" 
d="M1003 1042q41 110 -149 239q-97 59 -192 38q-22 -9 -44 -20q-157 -140 -150 -245q-4 -171 218.5 -219t316.5 207zM1036 1507q89 -46 198 -172q95 -176 48 -302q-41 -204 -282 -366q26 -9 62 -22q179 -83 166.5 -299.5t-201.5 -358t-437 -129.5q-21 -1 -44 2
q-153 21 -253 63.5t-184.5 152t-23 301.5t313.5 329q-25 12 -58 29q-168 104 -174 231v9q-16 266 253 463t563 102q29 -13 53 -33zM686 84q76 17 149 63q141 88 131 172q-13 168 -96.5 235.5t-277.5 -1.5t-229 -141q-64 -196 123 -258q123 -78 200 -70z" />
    <glyph glyph-name="nine" unicode="9" horiz-adv-x="1083" 
d="M685 701.5q102 40.5 78 413.5q-25 132 -153 206l-11 -1q-98 -13 -210 -291q-51 -154 -34 -238q27 -140 65 -155.5t100.5 5t164.5 61zM711 517q-29 -21 -61 -40q-170 -105 -355 38q-152 110 -190 303q-61 316 185 570q137 75 205 84q198 25 388 -107q94 -100 97 -116l14 2
l-1 5l36 -93q95 -897 -509 -1219q-206 -128 -310 -141q-53 -6 -130 155v14q-3 28 167 53q95 35 236 150q215 174 207 284q11 30 21 58z" />
    <glyph glyph-name="colon" unicode=":" horiz-adv-x="419" 
d="M201 336h21q77 0 95 -111v-5q0 -83 -100 -90q-73 0 -111 100v21q0 68 95 85zM208 931h21q77 0 95 -111v-5q0 -83 -100 -90q-73 0 -111 100v21q0 68 95 85z" />
    <glyph glyph-name="semicolon" unicode=";" horiz-adv-x="419" 
d="M148 191h9q88 8 155 -16v-4q-15 -21 -43 -95q-34 -39 -86 -188l-6 -1h-6q-61 0 -63 74.5t19 124.5v9q0 12 22 47q8 15 8 25v4q0 3 -16 16v1q1 3 7 3zM210 856h21q77 0 95 -111v-5q0 -83 -100 -90q-73 0 -111 100v21q0 68 95 85z" />
    <glyph glyph-name="semicolon" unicode="&#x37e;" horiz-adv-x="419" 
d="M148 191h9q88 8 155 -16v-4q-15 -21 -43 -95q-34 -39 -86 -188l-6 -1h-6q-61 0 -63 74.5t19 124.5v9q0 12 22 47q8 15 8 25v4q0 3 -16 16v1q1 3 7 3zM210 856h21q77 0 95 -111v-5q0 -83 -100 -90q-73 0 -111 100v21q0 68 95 85z" />
    <glyph glyph-name="less" unicode="&#x3c;" horiz-adv-x="976" 
d="M107 669l-6 -160l784 -315l-3 201l-566 199l569 201v199z" />
    <glyph glyph-name="equal" unicode="=" horiz-adv-x="913" 
d="M746 855l8 -11q93 -102 96 -194l-10 -2q-60 9 -255 11q-118 23 -506 19l-7 7l-6 7q-51 73 118.5 109t302.5 33l22 4q25 5 126 -5q41 -5 65 0l10 2q6 1 22 26h3q8 1 11 -6zM743 500l8 -11q93 -102 96 -194l-10 -2q-60 9 -255 11q-118 23 -506 19l-7 7l-6 7
q-51 73 118.5 109t302.5 33l22 4q25 5 126 -5q41 -5 65 0l10 2q6 1 22 26h3q8 1 11 -6z" />
    <glyph glyph-name="greater" unicode="&#x3e;" horiz-adv-x="957" 
d="M101 997v-199l573 -201l-570 -199l-3 -201l790 315l-6 160z" />
    <glyph glyph-name="question" unicode="?" horiz-adv-x="1091" 
d="M160 225l1 10q12 133 174 294q104 89 113 100q432 308 444 435q10 112 -209 190q-291 55 -367 30q-47 -31 -51 -49l-3 -36q18 -46 56 -96q100 -90 96 -131v-5q-1 -8 -9 -11l-76 -27q-137 -46 -248 102q-57 57 -83 184l9 92q64 168 209 216q133 47 363 18q201 -30 200 -43
q104 -8 259 -111q141 -142 128 -271q-18 -199 -519 -618q-198 -140 -206 -226q-173 -169 -281 -47zM414.5 41.5q41.5 -36.5 41.5 -88.5q0 -51 -41.5 -88t-99.5 -37t-99.5 37t-41.5 88q0 52 41.5 88.5t99.5 36.5t99.5 -36.5z" />
    <glyph glyph-name="at" unicode="@" horiz-adv-x="1815" 
d="M1074 453q-24 41 -48 103h-11q-229 -151 -340 -151q-128 0 -184 128q0 17 -11 73q0 231 379 401q126 39 173 39h50q145 -17 145 -50v-17q-2 -15 -240 -106q-159 -72 -240 -217l-11 -39v-11q23 -45 56 -45h28q79 0 267 206q89 84 140 84h16q8 0 34 -33v-34
q-25 -167 -36.5 -225t66.5 -5.5t132 168.5q135 241 108 417q-55 214 -241 230q-134 31 -407 -63q-96 -24 -242 -122q-219 -149 -219 -261q-184 -393 -125 -621q99 -274 333 -270q249 -32 578.5 105.5t326.5 2.5t-707 -339q-395 -13 -559 122q-140 126 -131 141
q-77 55 -136 255q-21 218 144.5 583.5t472.5 519.5q210 103 312 103q5 0 10 -1q84 21 211 35q316 -23 434 -138q101 -106 92 -116q57 -48 86 -203q-2 -165 -165.5 -426t-314.5 -314.5t-226 91.5z" />
    <glyph glyph-name="A" unicode="A" 
d="M114 643q82 235 160 380l16 44q19 51 112 201q34 53 165 137t247 47l6 -19q-2 -104 48 -458q-14 -199 91 -1075l-11 -10l-13 -4q-130 -44 -222 335q-35 143 -61 276q-36 2 -79 5q-76 22 -298 38q-101 -233 -263 -622l-11 -2l-9 3q-91 37 37 462q27 90 54 171q-14 0 -29 1
l-5 7v8q-5 47 65 75zM617 690q-18 111 -29 213l-15 43q-5 16 -32 175q-42 -168 -115 -255q-26 -47 -88 -184q137 12 240 4l26 3q5 1 13 1z" />
    <glyph glyph-name="B" unicode="B" horiz-adv-x="1073" 
d="M212 -165q-2 -19 -5 -37l-13 -8h-14q-137 0 -142 415.5t42 695.5v54q0 62 49 260q20 83 20 139v23q0 17 -36 87v8q2 16 14 16h21q126 27 234 -16q23 25 40 25q83 0 241 -88q382 -257 349 -500l-1 -8q-16 -117 -164 -212q-29 -15 -51 -26q201 -126 239 -233
q40 -112 -38 -284q-99 -141 -180 -180q3 -11 -150 -100q-177 -96 -294 -96q-89 0 -161 65zM478 1294q-31 -143 -78 -446q-47 -135 -111 -510q16 4 34 4h66q7 -1 10 -8l2 -4q12 -36 -46 -148q-18 -57 -22 -104l11 -32q8 -15 53 -28q65 0 284 140q158 138 123 236
q-24 66 -184 95.5t-156.5 100.5t147.5 153t154 238q14 96 -147 224q-79 62 -140 89z" />
    <glyph glyph-name="C" unicode="C" horiz-adv-x="1118" 
d="M644 1422q210 103 312 103q53 0 119 -173v-14q0 -29 -167 -32q-96 -24 -242 -122q-219 -149 -219 -261q-184 -393 -125 -621q99 -274 333 -270q56 18 70 39l25 45q24 127 140.5 135.5t59.5 -164.5l-63 -112q-153 -187 -297 -187q-132 0 -296 135q-140 126 -131 141
q-77 55 -136 255q-21 218 144.5 583.5t472.5 519.5z" />
    <glyph glyph-name="D" unicode="D" horiz-adv-x="1315" 
d="M635 1419q288 0 534 -262q134 -160 134 -332q0 -328 -430 -712q-169 -133 -460 -222q-125 -30 -159 -30h-84q-89 19 -89 64q0 18 -5 45q0 138 238 1073q23 69 84 69h39q144 -2 144 -19q-84 -303 -158 -703q-35 -104 -45 -237h5q172 57 336 173q193 176 193 232
q89 151 89 302q0 272 -292 386q-106 44 -227 44q-190 0 -425 -49q-40 3 -40 15q85 87 198 109q249 54 420 54z" />
    <glyph glyph-name="E" unicode="E" horiz-adv-x="1024" 
d="M504.5 517.5q-188.5 -29.5 -234.5 -95.5q-67 -98 71 -236q207 -140 281 -140q54 13 67 28l22 32q9 47 4 104q-33 112 -9 148l3 4q5 7 14 8h74q137 0 149 -168q15 -69 -30 -192l-54 -80q-140 -132 -284 -132q-132 0 -304 96q-147 89 -140 100q-80 39 -152 180
q-39 172 38 284q73 107 335 233q-21 11 -50 26q-140 95 -124 212l1 8q32 243 535 500q203 88 296 88q48 0 88 -148l-2 -12q-3 -25 -156 -28q-89 -20 -233 -104q-218 -128 -230 -224q-33 -156 106 -238t123 -153t-204.5 -100.5z" />
    <glyph glyph-name="F" unicode="F" horiz-adv-x="1079" 
d="M137 1414q-5 11 -11 24v8q2 18 14 18h21q55 13 106 11q32 9 71 18q236 52 395 54l30 6q36 8 148 -1q46 -4 78 2l13 3q10 2 50 34l4 1q10 1 9 -7v-14q24 -127 -51 -244l-13 -3q-65 10 -299 3q-58 12 -193 14q-31 -115 -85 -475q51 8 94 9l22 6q26 8 106 -1q34 -4 57 2l9 3
q7 2 35 -55.5t-26 -174.5l-9 -3q-48 10 -216 3q-37 10 -117 13q-67 -287 -159 -980l-13 -8h-14q-137 0 -142 437q-4 307 18 543h-2l-3 8v9q0 25 12 47q7 64 17 123v56q0 66 49 274q20 87 20 146l-1 11q-26 -1 -54 -2l-4 8v9q0 35 34 65z" />
    <glyph glyph-name="G" unicode="G" horiz-adv-x="1218" 
d="M841 -77q-129 -135 -251 -135q-132 0 -296 135q-140 126 -131 141q-77 55 -136 255q-21 218 144.5 583.5t472.5 519.5q210 103 312 103q53 0 119 -173v-14q0 -29 -167 -32q-96 -24 -242 -122q-219 -149 -219 -261q-184 -393 -125 -621q99 -274 333 -270q56 18 70 39
l25 45q16 83 46 179.5t54 215.5v32q0 38 35 157q15 49 15 83v14q0 10 70.5 51t179.5 -37v-14q-25 -70 -70 -318q-55 -130 -139 -630l-9 -5h-10q-56 0 -81 79z" />
    <glyph glyph-name="H" unicode="H" horiz-adv-x="1184" 
d="M59 779q11 101 27 187v46q0 53 49 222q20 70 20 118v19q0 14 -36 74v7q2 14 14 14h21q198 36 350 -75v-20q-34 -98 -98 -450q-10 -25 -21 -60q164 16 288 7l32 4q25 3 88 -4q7 60 16 116v54q0 62 49 260q20 82 20 138v22q0 17 98.5 85.5t250.5 -61.5v-24
q-34 -115 -98 -527q-76 -216 -193 -1048l-13 -7h-14q-137 0 -142 414q-2 188 7 349q-47 3 -104 6q-88 24 -332 40q-55 -237 -125 -659l-13 -6h-14q-137 0 -142 354q-2 177 9 325q-7 1 -14 1l-5 9l-1 9q-4 35 26 61z" />
    <glyph glyph-name="I" unicode="I" horiz-adv-x="498" 
d="M141 1466h21q198 36 350 -75v-20q-34 -98 -98 -450q-76 -185 -193 -895l-13 -6h-14q-137 0 -142 353.5t42 592.5v46q0 53 49 222q20 70 20 118v19q0 14 -36 74v7q2 14 14 14z" />
    <glyph glyph-name="J" unicode="J" horiz-adv-x="903" 
d="M776 340q-79 -200 -150 -255q5 -15 -127 -141q-153 -135 -259 -135q-115 0 -208 187l-33 112q-18 173 74 164.5t91 -135.5l13 -45q8 -21 50 -39q187 -4 310 270q84 228 76 642q38 616 158.5 548t88.5 -511.5t-84 -661.5z" />
    <glyph glyph-name="K" unicode="K" horiz-adv-x="1235" 
d="M106 779q11 101 27 187v46q0 53 49 222q20 70 20 118v19q0 14 -36 74v7q2 14 14 14h21q198 36 350 -75v-20q-34 -98 -98 -450q-10 -25 -21 -60q164 16 493 575v22q0 17 98.5 85.5t250.5 -61.5v-24q-34 -115 -572 -729q398 -468 503 -821l-13 -7h-14q-137 0 -271.5 162.5
t-242.5 330t-279 291.5q-55 -237 -125 -659l-13 -6h-14q-137 0 -142 354q-2 177 9 325q-7 1 -14 1l-5 9l-1 9q-4 35 26 61z" />
    <glyph glyph-name="L" unicode="L" horiz-adv-x="1128" 
d="M82 -81q-31 108 -33 310q-5 435 42 729v57q0 65 49 273q20 86 20 146v23q0 17 -36 91v9q2 17 14 17h21q198 44 350 -92v-25q-34 -121 -98 -554q-66 -199 -114 -841q12 4 25 9q185 26 354 45l31 9q35 11 158 14q51 1 83 11l12 4q10 3 42 39l5 2q9 1 12 -7l4 -14
q66 -124 23 -249l-13 -4q-73 3 -321 -28q-117 10 -486 -37l-8 -56l-13 -7h-14q-46 0 -77 48q-19 -2 -38 -5l-7 7l-3 9q-11 35 16 67z" />
    <glyph glyph-name="M" unicode="M" horiz-adv-x="1469" 
d="M746 1201q34 -103 45 -103q129 155 219 155q162 0 245 -919q53 -81 187 -206v-13q-10 -33 -84 -33h-32q-184 0 -267.5 131t-86.5 479t-71 348q-61 0 -188 -874q-54 -42 -141 -87q-81 0 -97 110q49 187 59.5 550.5t-18.5 364.5t-71 -22q-206 -103 -253 -882
q-54 -42 -161 -82q-81 0 -97 110q162 882 162 1015q0 32 -19 123v19q2 13 13 13h19q81 0 181 -155q34 -103 45 -103q118 142 214.5 179t196.5 -118z" />
    <glyph glyph-name="N" unicode="N" horiz-adv-x="1198" 
d="M725 1259q162 0 245 -919q53 -81 187 -206v-13q-10 -33 -84 -33h-32q-184 0 -267.5 131t-86.5 479t-20 412t-222 -28q-206 -103 -253 -882q-54 -42 -161 -82q-81 0 -97 110q162 882 162 1015q0 32 -19 123v19q2 13 13 13h19q81 0 181 -155q34 -103 45 -103
q269 212 390 119z" />
    <glyph glyph-name="O" unicode="O" horiz-adv-x="999" 
d="M624.5 1075.5q-81.5 -15.5 -217 -50t-195.5 -502.5q0 -167 139 -279h13q124 0 329 329q100 183 100 291q0 177 -43.5 202t-125 9.5zM843 1196q141 -161 141 -406q0 -402 -318 -680q-164 -71 -239 -71q-219 0 -397 194q-80 139 -80 159h-17v-8l-18 123q15 239 177 513
q170 176 375.5 280t375.5 -104z" />
    <glyph glyph-name="P" unicode="P" horiz-adv-x="1315" 
d="M635 1419q288 0 534 -262q134 -160 134 -332q0 -328 -265.5 -425.5t-616.5 -67.5q-133 -471 -167 -471h-84q-89 19 -89 64q0 18 -5 45q0 138 238 1073q23 69 84 69h39q144 -2 144 -19q-84 -303 -90 -381q-35 -104 -45 -237h5q354 12 452 123t98 262q0 272 -292 386
q-106 44 -227 44q-190 0 -425 -49q-40 3 -40 15q85 87 198 109q249 54 420 54z" />
    <glyph glyph-name="Q" unicode="Q" horiz-adv-x="1020" 
d="M655 105q-155 -66 -228 -66q-219 0 -397 194q-80 139 -80 159h-17v-8l-18 123q15 239 177 513q170 176 375.5 280t375.5 -104q141 -161 141 -406q0 -333 -219 -581q65 -110 192 -296l-3 -7l-7 -4q-60 -40 -195 99q-53 54 -97 104zM497 315q-12 23 -28 53q-18 33 -36 52
l-7 8q-5 6 -44 19l-2 2q-5 6 1 10l9 6q74 73 183 74l8 -8q10 -23 38 -70q36 50 74 112q100 183 100 291q0 177 -43.5 202t-125 9.5t-217 -50t-195.5 -502.5q0 -167 139 -279h13q58 0 133 71z" />
    <glyph glyph-name="R" unicode="R" horiz-adv-x="1283" 
d="M546 325q-61 2 -125 7q-133 -471 -167 -471h-84q-89 19 -89 64q0 18 -5 45q0 138 238 1073q23 69 84 69h39q144 -2 144 -19q-84 -303 -90 -381q-35 -104 -45 -237h5q354 12 452 123t98 262q0 272 -292 386q-106 44 -227 44q-190 0 -425 -49q-40 3 -40 15q85 87 198 109
q249 54 420 54q288 0 534 -262q134 -160 134 -332q0 -328 -265 -425q-120 -44 -257 -63q26 -71 68 -177q23 -133 123 -347l-6 -8l-8 -5q-78 -49 -163 34.5t-144 236.5l-16 26q-19 30 -52 144q-13 47 -31 74z" />
    <glyph glyph-name="S" unicode="S" horiz-adv-x="1235" 
d="M1027 1525q48 0 108 -148v-12q0 -25 -152 -28q-87 -20 -220 -104q-200 -128 -200 -224v-28q0 -75 192 -140q480 -225 480 -400q0 -112 -160 -284q-171 -141 -280 -180q0 -11 -212 -100q-242 -96 -376 -96q-146 0 -196 132v80q40 123 104 192q129 168 268 168h76
q8 -1 8 -8v-4q0 -36 -112 -148q-45 -57 -68 -104v-32q2 -15 48 -28q76 0 384 140q236 138 236 236q0 111 -420 256q-8 7 -108 56q-152 95 -152 212v8q0 243 468 500q191 88 284 88z" />
    <glyph glyph-name="T" unicode="T" horiz-adv-x="1335" 
d="M502 1438q3 4 9 4h21q117 26 218 -10q43 -3 83 -8l41 1q47 3 201 -27q64 -12 107 -10l17 1q12 1 65 30h6q13 -1 14 -10v-15q39 -146 -55 -264l-18 -1q-82 19 -362 49q-27 -143 -65 -393q-76 -223 -193 -1079l-13 -7h-14q-137 0 -142 426t42 714v56q0 64 49 268
q9 37 14 70q-205 27 -535 57l-6 9v11q-5 102 313 121q107 6 203 7z" />
    <glyph glyph-name="U" unicode="U" horiz-adv-x="1062" 
d="M241 67q-188 217 -98.5 629t51 455t-188.5 177l-1 15q9 38 87 43l35 2q196 13 293 -131.5t12.5 -515.5t-100.5 -471t197 18q213 132 215 1026q54 51 166 104q86 6 110 -119q-117 -1019 -109 -1171q2 -37 28 -140l1 -21q-1 -15 -13 -16l-20 -1q-86 -6 -203 165
q-42 115 -54 115q-273 -261 -408 -163z" />
    <glyph glyph-name="V" unicode="V" 
d="M58 -113l-5 19q4 104 -37 459q18 198 -66 1077l11 9l13 4q131 41 214 -339.5t109 -685.5l14 -43q5 -16 28 -175q46 166 121 251q76 128 436 938l11 2l9 -3q90 -39 -48 -460.5t-260 -636.5l-17 -44q-20 -50 -116 -198q-35 -53 -168 -134t-249 -40z" />
    <glyph glyph-name="W" unicode="W" horiz-adv-x="1561" 
d="M704 34q-40 130 -53 129q-138 -201 -237 -204q-179 -5 -296 1161q-10 257 98 323.5t159.5 -130t64.5 -639.5t88 -440q68 2 184 1118q58 55 153 115q89 2 110 -137q-49 -240 -50.5 -702.5t30.5 -463t128 118.5q158 292 205 1042q58 55 175 109q90 3 110 -136
q-215 -981 -417 -1174q-126 -184 -231.5 -234t-220.5 144z" />
    <glyph glyph-name="X" unicode="X" horiz-adv-x="953" 
d="M358 625q-31 58 -83 193q-159 367 -187 410l-12 17q-9 13 -44 106l-3 6q-7 14 1 18l14 9q90 68 260 40l12 -18q22 -67 231 -527q11 13 24 26q217 370 243 415l10 18q7 13 66 89l3 6q10 12 18 8l15 -9q49 -4 100 -170l-11 -17q-59 -59 -373 -563q3 -7 7 -15
q173 -412 274 -645l-9 -6q-132 -107 -217 57q-75 114 -240 400q-111 -112 -454 -615l-12 -1l-11 6q-16 9 -40 181q359 502 418 581z" />
    <glyph glyph-name="Y" unicode="Y" horiz-adv-x="932" 
d="M713 -227h-27q-117 0 -188.5 123.5t-27 418.5t28.5 295q-185 -248 -314 -248q-232 0 -229 463q50 355 84 554v21q15 53 121 53h46q113 -5 36.5 -288.5t-38 -373t136.5 -89.5q87 0 265 703q77 67 215 62q116 0 139 -176q-102 -436 -232 -1188q0 -51 2 -279v-30
q-2 -21 -18 -21z" />
    <glyph glyph-name="Z" unicode="Z" horiz-adv-x="1124" 
d="M141 1462l20 1q97 -11 132 -7q470 -8 613 1.5t172.5 -124t-119 -287.5t-426 -439t434.5 -267q216 -148 123.5 -244t-196.5 -54q-942 -24 -901 217q523 658 700.5 833.5t34.5 214.5q-617 30 -606 118l3 21q1 12 15 16z" />
    <glyph glyph-name="bracketleft" unicode="[" horiz-adv-x="569" 
d="M139 -407v1873h397v-149h-217v-1575h217v-149h-397z" />
    <glyph glyph-name="backslash" unicode="\" horiz-adv-x="569" 
d="M425 -25l-425 1516h145l424 -1516h-144z" />
    <glyph glyph-name="bracketright" unicode="]" horiz-adv-x="569" 
d="M436 -407h-397v149h217v1575h-217v149h397v-1873z" />
    <glyph glyph-name="asciicircum" unicode="^" horiz-adv-x="961" 
d="M239 690h-185l353 801h145l355 -801h-181l-247 597z" />
    <glyph glyph-name="underscore" unicode="_" horiz-adv-x="1139" 
d="M-31 -407v130h1193v-130h-1193z" />
    <glyph glyph-name="grave" unicode="`" horiz-adv-x="457" 
d="M331 1109.5q-74 -50.5 -189.5 89.5t-4.5 188.5t189.5 -89.5t4.5 -188.5z" />
    <glyph glyph-name="a" unicode="a" horiz-adv-x="857" 
d="M574 862h50q145 -17 145 -50v-17q-2 -15 -240 -106q-159 -72 -240 -217l-11 -39v-11q23 -45 56 -45h28q79 0 267 206q89 84 140 84h16q8 0 34 -33v-34q-59 -401 -134 -401h-6q-55 29 -111 173h-11q-229 -151 -340 -151q-128 0 -184 128q0 17 -11 73q0 231 379 401
q126 39 173 39z" />
    <glyph glyph-name="b" unicode="b" horiz-adv-x="857" 
d="M295 188l-50 -5q-146 5 -149 39l-1 16q0 16 230 125q152 85 221 237l8 39l-1 11q-26 43 -59 40l-28 -2q-79 -7 -250 -227q-82 -91 -132 -95l-16 -1q-8 -1 -36 30l-3 33q92 1011 166 1017l6 1q189 46 59 -769l11 1q216 168 327 177q127 11 193 -112q2 -17 17 -72
q19 -230 -344 -430q-123 -50 -169 -53z" />
    <glyph glyph-name="c" unicode="c" horiz-adv-x="808" 
d="M510 896l49 10q145 12 152 -23l3 -17q1 -17 -244 -179q-113 -89 -165 -258l-3 -43l2 -12q31 -42 63 -35l27 6q78 16 140 99t111 93l17 3q7 2 39 -28l6 -35l-131 -157l-11 -3q-174 -143 -283 -166q-126 -26 -205 97q-3 18 -25 74q-44 243 295 498q117 67 163 76z" />
    <glyph glyph-name="d" unicode="d" horiz-adv-x="765" 
d="M455 177q17 334 -78 326q-144 -10 -164 -73l-6 -37q-9 -199 183 -238q39 -19 65 22zM595 81h1q1 8 -1 0zM595 81q-1 -4 -3 -13q-6 -25 -27 -56l-12 -6l-30 -3q-33 -3 -61 35l-12 -1q-275 22 -343 112q-120 158 -96 300q6 39 29 84q93 167 184 175q124 9 249 -79l10 1
l7 42q51 132 39 423t-9 309q16 33 32 38l5 1q32 2 87 -80q99 -199 89 -467t-146 -811l-1 -5z" />
    <glyph glyph-name="e" unicode="e" horiz-adv-x="743" 
d="M401 994q112 0 244 -191q0 -18 11 -47q-31 -138 -243 -278q-52 -12 -76 -12h-5q-9 0 -18 18q0 34 122 226q23 58 23 98v6q0 79 -87 110q-95 -24 -116 -377q0 -243 134 -243h11q243 52 284 52h6q18 0 18 -23q0 -45 -209 -157q-61 -35 -157 -52q-199 0 -290 255
q-17 73 -23 163q0 322 267 435q59 17 104 17z" />
    <glyph glyph-name="f" unicode="f" horiz-adv-x="559" 
d="M410 673l-83 -730q-38 -196 -173 -341q-86 -72 -119 -72h-5q-16 4 -25 37q1 17 91 348q73 543 104 784q-72 13 -152 19l-4 6l-1 6q-1 9 119 59q28 11 51 18q9 71 9 81q6 142 163 313q91 97 288 141h31q10 0 20 -31q-1 -22 -140 -94q-141 -164 -145 -256l-1 -37l-13 -113
q35 -6 60 -4l10 1q8 0 50 -6h3q7 0 8 -5l1 -9q15 -59 -37 -127l-11 -1q-29 6 -99 13z" />
    <glyph glyph-name="g" unicode="g" horiz-adv-x="689" 
d="M649 642h-11v-6q0 -259 -125 -699q-35 -113 -172 -324q-72 -89 -105 -89h-5q-16 4 -26 37q0 17 99 339q68 304 84 413v41h-11q-145 -99 -177 -99q-94 0 -162 162q-16 44 -16 84q0 142 151 313q87 97 282 141h32q10 0 21 -31q0 -22 -136 -94q-136 -164 -136 -256v-37
q10 -62 63 -62q106 0 203 182q45 58 84 58h31l11 -5q16 -31 18.5 -56t2.5 -12z" />
    <glyph glyph-name="h" unicode="h" horiz-adv-x="877" 
d="M140 1421h19q81 0 181 -155q-29 -695 -18 -695q129 155 219 155q162 0 211 -367q16 -101 150 -226v-13q-10 -33 -84 -33h-32q-184 0 -229 265q-57 161 -125 161q-61 0 -97 -265q-54 -42 -226 -90q-81 0 -97 110q71 273 134 998q0 32 -19 123v19q2 13 13 13z" />
    <glyph glyph-name="i" unicode="i" horiz-adv-x="416" 
d="M273 1191h21q77 0 95 -111v-5q0 -83 -100 -90q-73 0 -111 100v21q0 68 95 85zM37 935h15q223 0 332 -86v-15q-25 -76 -70 -347q-56 -142 -86 -317l-10 -5h-10q-16 0 -85 181q-41 111 -41 176v35q0 41 36 171q15 54 15 91v15q0 11 -106 85v5q2 11 10 11z" />
    <glyph glyph-name="j" unicode="j" horiz-adv-x="510" 
d="M273 1191h20q77 0 96 -111v-5q0 -83 -101 -90q-72 0 -110 100v21q0 68 95 85zM116 907h15q143 28 253 -58v-15q-25 -76 -71 -347q-55 -142 -139 -689l-10 -5h-10q-99 0 -102.5 272.5t30.5 456.5v35q0 41 35 171q15 54 15 91v15q0 11 -26 57v5q1 11 10 11z" />
    <glyph glyph-name="k" unicode="k" horiz-adv-x="877" 
d="M140 1421h19q81 0 181 -155q-29 -695 -18 -695q129 155 219 155q293 -111 17 -392q210 -76 344 -201v-13q-10 -33 -84 -33h-32q-184 0 -465 280q321 47 111 146q-61 0 -97 -265q-54 -42 -226 -90q-81 0 -97 110q71 273 134 998q0 32 -19 123v19q2 13 13 13z" />
    <glyph glyph-name="l" unicode="l" horiz-adv-x="450" 
d="M116 1466h15q143 36 253 -75v-20q-25 -98 -71 -450q-55 -185 -139 -895l-10 -6h-10q-99 0 -102.5 353.5t30.5 592.5v46q0 53 35 222q15 70 15 118v19q0 14 -26 74v7q1 14 10 14z" />
    <glyph glyph-name="m" unicode="m" horiz-adv-x="1498" 
d="M710 717q34 -103 45 -103q129 155 219 155q162 0 336 -310q53 -81 187 -206v-13q-10 -33 -84 -33h-32q-184 0 -342 220q-106 129 -174 129q-61 0 -97 -265q-54 -42 -226 -90q-81 0 -97 110q49 187 56.5 247.5t-21.5 61.5t-71 -22q-61 0 -97 -265q-54 -42 -226 -90
q-81 0 -97 110q71 273 71 406q0 32 -19 123v19q2 13 13 13h19q81 0 181 -155q34 -103 45 -103q118 142 214.5 179t196.5 -118z" />
    <glyph glyph-name="n" unicode="n" horiz-adv-x="1108" 
d="M91 909h19q81 0 181 -155q34 -103 45 -103q129 155 219 155q162 0 336 -310q53 -81 187 -206v-13q-10 -33 -84 -33h-32q-184 0 -342 220q-106 129 -174 129q-61 0 -97 -265q-54 -42 -226 -90q-81 0 -97 110q71 273 71 406q0 32 -19 123v19q2 13 13 13z" />
    <glyph glyph-name="o" unicode="o" horiz-adv-x="717" 
d="M245 1123h30q213 -56 350 -223q96 -110 96 -277q0 -274 -217 -464q-111 -48 -163 -48q-149 0 -271 133q-54 94 -54 108h-12v-6l-12 84q10 163 120 350q117 120 199 120q114 0 205 -126v-18q0 -61 -42 -61q-33 0 -90 12q-74 0 -103 -223q0 -79 66 -132h6q60 0 157 157
q48 87 48 138v84q-16 92 -96 187q-50 68 -229 109q-24 18 -24 36q0 39 36 60z" />
    <glyph glyph-name="p" unicode="p" horiz-adv-x="734" 
d="M237 848q-17 -334 78 -326q144 10 164 73l6 37q9 199 -183 238q-39 19 -65 -22zM97 944h-1q-1 -8 1 0zM97 944q1 4 3 13q6 25 27 56l12 6l30 3q33 3 61 -35l12 1q275 -22 343 -112q120 -158 96 -300q-6 -39 -29 -84q-93 -167 -184 -175q-124 -9 -249 79l-10 -1l-7 -42
q-51 -132 -39 -423t9 -309q-16 -33 -32 -38l-5 -1q-32 -2 -87 80q-99 199 -89 467t146 811l1 5z" />
    <glyph glyph-name="q" unicode="q" horiz-adv-x="868" 
d="M559 965l50 5q146 -5 149 -39l1 -16q0 -16 -230 -125q-152 -85 -221 -237l-8 -39l1 -11q26 -43 59 -40l28 2q79 7 250 227q82 91 132 95l16 1q8 1 36 -30l3 -33q-92 -1011 -166 -1017l-6 -1q-189 -46 -59 769l-11 -1q-216 -168 -327 -177q-127 -11 -193 112q-2 17 -17 72
q-19 230 344 430q123 50 169 53z" />
    <glyph glyph-name="r" unicode="r" horiz-adv-x="692" 
d="M91 909h19q81 0 181 -155q34 -103 45 -103q129 155 219 155q162 0 129 -123.5t-238 -89.5q-61 0 -117 -459q-54 -42 -226 -90q-81 0 -97 110q91 467 91 600q0 32 -19 123v19q2 13 13 13z" />
    <glyph glyph-name="s" unicode="s" horiz-adv-x="702" 
d="M675 868l-2 -19q-8 -80 -283 -87q-142 -36 2 -146t135 -199q-16 -162 -341 -304q-106 -39 -173 49t167 224q139 92 117 140.5t-153 93t-76 167t187.5 113.5t264.5 -22q32 -4 125 6l19 -1q12 -4 11 -15z" />
    <glyph glyph-name="t" unicode="t" horiz-adv-x="447" 
d="M82 857q1 47 35 185q15 59 15 99v17q0 12 71 61t181 -45v-16q-22 -74 -62 -321q8 -2 17 -4q27 -7 45 -7l8 1q5 0 28.5 -40t-16.5 -107h-8q-26 9 -99 21q-91 -433 -65 -543q28 -121 -68 -138h-10q-99 0 -102 298q-3 249 20 430q-80 13 -195 28l-3 6v6q-2 58 134 67
q39 2 74 2z" />
    <glyph glyph-name="u" unicode="u" horiz-adv-x="668" 
d="M597 163h-19q-81 0 -181 155q-34 103 -45 103q-129 -155 -219 -155q-162 0 -160 290q23 98 47 223v13q10 33 84 33h32q79 -3 31.5 -118.5t-20.5 -171.5t95 -56q61 0 173 316q54 42 150 39q81 0 97 -110q-71 -273 -71 -406q0 -32 19 -123v-19q-2 -13 -13 -13z" />
    <glyph glyph-name="v" unicode="v" horiz-adv-x="694" 
d="M384 412q-161 -146 -251 -146q-162 0 -109 267q18 139 -4 246v13q10 33 84 33h32q79 -3 74 -120t32 -226q64 56 173 316q54 42 150 39q81 0 97 -110q-267 -312 -278 -312z" />
    <glyph glyph-name="w" unicode="w" horiz-adv-x="1204" 
d="M471 364q-37 102 -48 102q-123 -160 -213 -164q-162 -6 -198.5 146.5t5.5 424.5v13q8 33 82 36l32 1q184 7 82 -295q29 -111 97 -109q61 3 87 269q53 44 223 98q81 4 101 -106q-42 -188 -47 -249t24 -61t70 25q61 2 87 268q52 44 222 99q81 3 101 -106
q-193 -329 -302 -395.5t-204 -107t-201 110.5z" />
    <glyph glyph-name="x" unicode="x" horiz-adv-x="722" 
d="M210 481q-26 51 -71 168q-24 62 -49 99l-10 15q-8 11 -38 92l-3 5q-6 12 1 16l12 8q78 59 226 34l10 -15q19 -58 86 -201q10 10 21 22q46 48 68 87l9 16q6 11 57 77l3 5q8 11 15 7l13 -8q43 -3 87 -147l-9 -15q-52 -51 -181 -215q3 -6 6 -13q49 -173 142 -364l-5 -11
l-8 -5q-13 -9 -188 49q-65 99 -108 163q-96 -98 -191 -219l-11 -1l-9 5q-14 8 -35 157q109 120 160 189z" />
    <glyph glyph-name="y" unicode="y" horiz-adv-x="680" 
d="M489 -227h-19q-81 0 -131 77.5t-13 324t26 246.5q-129 -155 -219 -155q-162 0 -160 290q23 98 47 223v13q10 33 84 33h32q79 -3 31.5 -118.5t-20.5 -171.5t95 -56q61 0 173 316q54 42 150 39q81 0 97 -110q-71 -273 -162 -744q0 -32 2 -175v-19q-2 -13 -13 -13z" />
    <glyph glyph-name="z" unicode="z" horiz-adv-x="727" 
d="M170 975l19 1q88 -10 121 -6q131 13 262.5 22t158 -113.5t-111 -167t-244.5 -156t158 -77.5q198 -136 113.5 -224t-179.5 -49q-477 -39 -440 182q185 211 350 321t34 146q-267 7 -257 87l2 19q1 11 14 15z" />
    <glyph glyph-name="braceleft" unicode="{" horiz-adv-x="684" 
d="M57 612q77 2 125.5 41.5t64.5 108.5t17 236t6 220q9 84 33.5 135t60.5 81.5t92 46.5q38 10 124 10h56v-157h-31q-104 0 -138 -37.5t-34 -167.5q0 -262 -11 -331q-18 -107 -61.5 -165t-136.5 -103q110 -46 159.5 -140.5t49.5 -309.5q0 -195 4 -232q8 -68 40.5 -95
t127.5 -27h31v-157h-56q-98 0 -142 16q-64 23 -106 74.5t-54.5 130.5t-13.5 259t-17 249t-64.5 109t-125.5 42v163z" />
    <glyph glyph-name="bar" unicode="|" horiz-adv-x="532" 
d="M188 -431v1922h157v-1922h-157z" />
    <glyph glyph-name="braceright" unicode="}" horiz-adv-x="684" 
d="M626 612v-163q-77 -2 -125.5 -42t-64.5 -108.5t-17 -235.5t-6 -220q-9 -85 -33.5 -135.5t-60.5 -81t-92 -46.5q-38 -11 -124 -11h-56v157h31q104 0 138 37.5t34 168.5q0 250 9 317q16 111 64 177.5t136 103.5q-115 55 -162 145.5t-47 305.5q0 195 -5 233
q-7 67 -39.5 93.5t-127.5 26.5h-31v157h56q98 0 142 -16q64 -22 106 -74t54.5 -131t13.5 -259t17 -248.5t64.5 -108.5t125.5 -42z" />
    <glyph glyph-name="asciitilde" unicode="~" horiz-adv-x="1196" 
d="M87 557v205q106 120 278 120q60 0 126 -17.5t188 -69.5q69 -29 103.5 -38t69.5 -9q65 0 134.5 39t123.5 98v-212q-64 -60 -129.5 -87t-147.5 -27q-60 0 -114.5 14t-173 67t-197.5 53q-64 0 -120.5 -27.5t-140.5 -108.5z" />
    <glyph glyph-name="exclamdown" unicode="&#xa1;" horiz-adv-x="403" 
d="M271 -242h-15q-143 -28 -254 54v15q24 74 68 340q54 139 134 675l10 4h10q99 1 104.5 -265t-26.5 -446v-35q0 -39 -34 -168q-14 -52 -14 -88v-15q0 -10 26 -55v-6q0 -10 -9 -10zM196 990q-25 26 -26 64q0 37 25 63.5t61 26.5q36 1 61 -25.5t25 -63.5q1 -38 -24 -64
t-61 -27q-36 0 -61 26z" />
    <glyph glyph-name="cent" unicode="&#xa2;" horiz-adv-x="900" 
d="M624 908q115 6 121 -25l3 -17q1 -13 -137 -107q-2 -23 -4 -47q-16 -81 -35 -262q60 77 107 87l17 3q7 2 39 -28l6 -35l-131 -157l-11 -3q-22 -18 -43 -34q-17 -196 -36 -469l-7 -7h-8q-74 -2 -83 351q-1 17 -1 34q-59 -31 -105 -41q-126 -26 -205 97q-3 18 -25 74
q-44 243 295 498q29 17 53 29q5 61 20 171q10 70 9 118v19q-1 14 -21 73l-1 7q1 15 8 15h11q107 40 191 -68l1 -20q-12 -68 -28 -256zM423 603q-53 -73 -84 -174l-3 -43l2 -12q31 -42 63 -35l18 4q-1 141 4 260z" />
    <glyph glyph-name="yen" unicode="&#xa5;" horiz-adv-x="1028" 
d="M877 204q-9 -50 -18 -101q0 -51 1 -279v-30q-1 -21 -19 -21h-29q-123 0 -200 124q-61 98 -42 307h-114v83h123q2 14 5 28l4 24h-132v83h144q28 188 14 188q-196 -248 -334 -248q-246 0 -242 463q52 355 88 554v21q17 53 129 53h49q120 -5 38.5 -288.5t-40.5 -373
t146 -89.5q92 0 281 703q81 67 228 62q123 0 148 -176q-85 -339 -187 -869h159v-83h-174l-10 -52h184v-83h-200z" />
    <glyph glyph-name="dieresis" unicode="&#xa8;" horiz-adv-x="737" 
d="M194 1335h21q77 0 95 -111v-5q0 -83 -100 -90q-73 0 -111 100v21q0 68 95 85zM537 1332h21q77 0 95 -111v-5q0 -83 -100 -90q-73 0 -111 100v21q0 68 95 85z" />
    <glyph glyph-name="copyright" unicode="&#xa9;" horiz-adv-x="1674" 
 />
    <glyph glyph-name="ordfeminine" unicode="&#xaa;" horiz-adv-x="657" 
d="M422 1434h33q96 -10 96 -30v-10q-1 -9 -158 -64q-105 -43 -159 -130l-7 -23v-7q15 -27 37 -27h18q53 0 177 124q58 50 92 50h11q5 0 22 -20v-20q-39 -241 -88 -241h-4q-37 18 -74 104h-7q-151 -91 -224 -91q-85 0 -122 77q0 10 -7 44q0 139 250 241q83 23 114 23z" />
    <glyph glyph-name="guillemotleft" unicode="&#xab;" horiz-adv-x="1666" 
d="M107 669l-6 -160l784 -315l-3 201l-566 199l569 201v199zM797 669l-6 -160l784 -315l-3 201l-566 199l569 201v199z" />
    <glyph glyph-name="registered" unicode="&#xae;" horiz-adv-x="1674" 
 />
    <glyph glyph-name="plusminus" unicode="&#xb1;" horiz-adv-x="1196" 
d="M513 237v402h-399v168h399v399h170v-399h399v-168h-399v-402h-170zM114 0v168h968v-168h-968z" />
    <glyph glyph-name="uni00B2" unicode="&#xb2;" horiz-adv-x="558" 
d="M91 1054q18 37 60 80q43 36 47 41q176 125 181 177q4 46 -85 78q-119 23 -150 12q-20 -12 -21 -20l-1 -14q7 -19 23 -40q40 -36 39 -53v-2q-1 -4 -4 -5l-31 -11q-56 -19 -102 42q-23 23 -33 75l3 38q26 68 86 88q54 19 148 7q82 -12 82 -17q42 -3 106 -46q57 -58 52 -110
q-7 -82 -212 -253q-36 -26 -57 -47q-68 -101 218 -93q97 -67 55.5 -110t-88.5 -24q-424 -11 -406 97q49 61 90 110z" />
    <glyph glyph-name="uni00B3" unicode="&#xb3;" horiz-adv-x="378" 
d="M160 1225.5q62 29.5 69 86.5q8 35 -40 82q-60 30 -128 4q-36 -35 -54 -6v4q17 58 65 78q108 32 192.5 -34t66.5 -154l-1 -3q-8 -43 -72 -77q-13 -6 -22 -10q82 -46 95 -85q15 -40 -21 -103q-44 -51 -79 -65q1 -4 -64 -37q-76 -35 -125 -35q-54 0 -90 48l-10 29
q-1 45 13 70q26 61 77 61h27q3 0 4 -3l1 -1q4 -13 -22 -54q-9 -21 -11 -38l4 -11q3 -6 21 -11q28 0 122 51q69 51 56 86q-9 24 -75.5 35t-63.5 37t65 55.5z" />
    <glyph glyph-name="acute" unicode="&#xb4;" horiz-adv-x="457" 
d="M106.5 1119.5q-62.5 64.5 55.5 202.5t185 37t-55.5 -202.5t-185 -37z" />
    <glyph glyph-name="mu" unicode="&#xb5;" horiz-adv-x="803" 
d="M241 515l4 -10q27 -56 95 -56q61 0 173 316q54 42 150 39q81 0 97 -110q-71 -273 -71 -406q0 -32 19 -123v-19q-2 -13 -13 -13h-19q-81 0 -181 155q-34 103 -45 103q-129 -155 -219 -155q-23 0 -43 6q-32 -178 -73 -499l-8 -4h-8q-80 0 -82.5 266t24.5 446v35
q0 39 28 167q12 52 12 88v15q0 10 -21 55v6q1 10 8 10h12q115 27 204 -56v-15q0 -2 -1 -3q2 -26 -14 -69q-12 -64 -28 -169z" />
    <glyph glyph-name="paragraph" unicode="&#xb6;" horiz-adv-x="1024" 
 />
    <glyph glyph-name="periodcentered" unicode="&#xb7;" horiz-adv-x="361" 
d="M171 805h18q65 0 80 -94v-5q0 -70 -85 -76q-62 0 -94 85v18q0 57 81 72z" />
    <glyph glyph-name="periodcentered" unicode="&#x2219;" horiz-adv-x="361" 
d="M171 805h18q65 0 80 -94v-5q0 -70 -85 -76q-62 0 -94 85v18q0 57 81 72z" />
    <glyph glyph-name="cedilla" unicode="&#xb8;" horiz-adv-x="513" 
d="M283 47.5q-84 -30.5 -34.5 -129.5t-33.5 -156.5t-38 -109.5t171 40t72.5 239t-137.5 116.5z" />
    <glyph glyph-name="uni00B9" unicode="&#xb9;" horiz-adv-x="269" 
d="M38 1466h9q110 15 176 -23v-7q-15 -33 -42 -152q-33 -63 -83 -304l-6 -2h-6q-59 0 -61.5 120t18.5 177v15q0 18 21 76q9 24 9 40v6q0 5 -73 -4v14q0 44 38 44z" />
    <glyph glyph-name="ordmasculine" unicode="&#xba;" horiz-adv-x="585" 
d="M217 1434h20q140 -34 231 -134q63 -66 63 -166q0 -164 -143 -278q-73 -29 -108 -29q-98 0 -179 80q-35 56 -35 64h-8v-3l-8 50q7 98 79 210q77 72 132 72q75 0 135 -75v-11q0 -37 -28 -37q-22 0 -59 7q-49 0 -68 -133q0 -48 43 -80h4q40 0 104 95q32 52 32 82v51
q-11 55 -64 112q-33 41 -151 65q-16 11 -16 22q0 23 24 36z" />
    <glyph glyph-name="guillemotright" unicode="&#xbb;" horiz-adv-x="1652" 
d="M101 997v-199l573 -201l-570 -199l-3 -201l790 315l-6 160zM796 997v-199l573 -201l-570 -199l-3 -201l790 315l-6 160z" />
    <glyph glyph-name="onequarter" unicode="&#xbc;" horiz-adv-x="1686" 
d="M38 1466h9q110 15 176 -23v-7q-15 -33 -42 -152q-33 -63 -83 -304l-6 -2h-6q-59 0 -61.5 120t18.5 177v15q0 18 21 76q9 24 9 40v6q0 5 -73 -4v14q0 44 38 44zM786 1380l15 -5q148 -15 214 -157l-7 -19q-56 -84 -220 -399q-114 -155 -436 -794l-11 -3l-9 4
q-94 34 22.5 367.5t230.5 546.5l15 44q18 50 109 196q38 61 54 106l6 18q5 13 1 79l2 6q6 13 14 10zM1339 217q-208 -38 -224 22q-13 46 -14 134l16 147q9 38 9 64v9q0 8 -16 40v4q1 7 6 7h9q86 19 152 -40v-11q-15 -52 -69 -292q5 1 11 3q65 10 125 16q4 48 12 89v20
q0 23 20 96q8 30 8 51v8q0 6 -14 32v3q0 6 5 6h9q82 16 144 -32v-9q-14 -42 -40 -194q-8 -21 -17 -55q11 1 19 4l5 1q4 2 30 4t7 -103l-5 -1q-22 0 -79 -6q-18 -92 -40 -232l-5 -2h-6q-57 0 -58 153q-1 33 0 64z" />
    <glyph glyph-name="onehalf" unicode="&#xbd;" horiz-adv-x="1608" 
d="M38 1466h9q110 15 176 -23v-7q-15 -33 -42 -152q-33 -63 -83 -304l-6 -2h-6q-59 0 -61.5 120t18.5 177v15q0 18 21 76q9 24 9 40v6q0 5 -73 -4v14q0 44 38 44zM786 1380l15 -5q148 -15 214 -157l-7 -19q-56 -84 -220 -399q-114 -155 -436 -794l-11 -3l-9 4
q-94 34 22.5 367.5t230.5 546.5l15 44q18 50 109 196q38 61 54 106l6 18q5 13 1 79l2 6q6 13 14 10zM1141 213q18 37 60 80q43 36 47 41q176 125 181 177q4 46 -85 78q-119 23 -150 12q-20 -12 -21 -20l-1 -14q7 -19 23 -40q40 -36 39 -53v-2q-1 -4 -4 -5l-31 -11
q-56 -19 -102 42q-23 23 -33 75l3 38q26 68 86 88q54 19 148 7q82 -12 82 -17q42 -3 106 -46q57 -58 52 -110q-7 -82 -212 -253q-36 -26 -57 -47q-68 -101 218 -93q97 -67 55.5 -110t-88.5 -24q-424 -11 -406 97q49 61 90 110z" />
    <glyph glyph-name="threequarters" unicode="&#xbe;" horiz-adv-x="1795" 
d="M160 1225.5q62 29.5 69 86.5q8 35 -40 82q-60 30 -128 4q-36 -35 -54 -6v4q17 58 65 78q108 32 192.5 -34t66.5 -154l-1 -3q-8 -43 -72 -77q-13 -6 -22 -10q82 -46 95 -85q15 -40 -21 -103q-44 -51 -79 -65q1 -4 -64 -37q-76 -35 -125 -35q-54 0 -90 48l-10 29
q-1 45 13 70q26 61 77 61h27q3 0 4 -3l1 -1q4 -13 -22 -54q-9 -21 -11 -38l4 -11q3 -6 21 -11q28 0 122 51q69 51 56 86q-9 24 -75.5 35t-63.5 37t65 55.5zM895 1380l15 -5q148 -15 214 -157l-7 -19q-56 -84 -220 -399q-114 -155 -436 -794l-11 -3l-9 4q-94 34 22.5 367.5
t230.5 546.5l15 44q18 50 109 196q38 61 54 106l6 18q5 13 1 79l2 6q6 13 14 10zM1448 217q-208 -38 -224 22q-13 46 -14 134l16 147q9 38 9 64v9q0 8 -16 40v4q1 7 6 7h9q86 19 152 -40v-11q-15 -52 -69 -292q5 1 11 3q65 10 125 16q4 48 12 89v20q0 23 20 96q8 30 8 51v8
q0 6 -14 32v3q0 6 5 6h9q82 16 144 -32v-9q-14 -42 -40 -194q-8 -21 -17 -55q11 1 19 4l5 1q4 2 30 4t7 -103l-5 -1q-22 0 -79 -6q-18 -92 -40 -232l-5 -2h-6q-57 0 -58 153q-1 33 0 64z" />
    <glyph glyph-name="questiondown" unicode="&#xbf;" horiz-adv-x="1016" 
d="M955 663l-1 -9q-11 -121 -158 -267q-95 -81 -103 -91q-393 -280 -404 -395q-9 -102 190 -173q265 -50 334 -27q43 28 46 44l3 33q-16 42 -51 87q-91 82 -87 119v5q1 7 8 10l69 24q125 42 226 -92q51 -52 75 -168l-8 -83q-58 -153 -190 -197q-121 -42 -330 -16
q-183 27 -182 39q-94 7 -235 101q-128 129 -117 246q17 181 472 562q180 127 187 205q158 154 256 43zM723.5 830q-37.5 33 -37.5 80t37.5 80.5t90.5 33.5t90.5 -33.5t37.5 -80.5t-37.5 -80t-90.5 -33t-90.5 33z" />
    <glyph glyph-name="Agrave" unicode="&#xc0;" 
d="M114 643q82 235 160 380l16 44q19 51 112 201q34 53 165 137t247 47l6 -19q-2 -104 48 -458q-14 -199 91 -1075l-11 -10l-13 -4q-130 -44 -222 335q-35 143 -61 276q-36 2 -79 5q-76 22 -298 38q-101 -233 -263 -622l-11 -2l-9 3q-91 37 37 462q27 90 54 171q-14 0 -29 1
l-5 7v8q-5 47 65 75zM617 690q-18 111 -29 213l-15 43q-5 16 -32 175q-42 -168 -115 -255q-26 -47 -88 -184q137 12 240 4l26 3q5 1 13 1zM515 1519.5q-74 -50.5 -189.5 89.5t-4.5 188.5t189.5 -89.5t4.5 -188.5z" />
    <glyph glyph-name="Aacute" unicode="&#xc1;" 
d="M114 643q82 235 160 380l16 44q19 51 112 201q34 53 165 137t247 47l6 -19q-2 -104 48 -458q-14 -199 91 -1075l-11 -10l-13 -4q-130 -44 -222 335q-35 143 -61 276q-36 2 -79 5q-76 22 -298 38q-101 -233 -263 -622l-11 -2l-9 3q-91 37 37 462q27 90 54 171q-14 0 -29 1
l-5 7v8q-5 47 65 75zM617 690q-18 111 -29 213l-15 43q-5 16 -32 175q-42 -168 -115 -255q-26 -47 -88 -184q137 12 240 4l26 3q5 1 13 1zM383.5 1529.5q-62.5 64.5 55.5 202.5t185 37t-55.5 -202.5t-185 -37z" />
    <glyph glyph-name="Acircumflex" unicode="&#xc2;" 
d="M114 643q82 235 160 380l16 44q19 51 112 201q34 53 165 137t247 47l6 -19q-2 -104 48 -458q-14 -199 91 -1075l-11 -10l-13 -4q-130 -44 -222 335q-35 143 -61 276q-36 2 -79 5q-76 22 -298 38q-101 -233 -263 -622l-11 -2l-9 3q-91 37 37 462q27 90 54 171q-14 0 -29 1
l-5 7v8q-5 47 65 75zM617 690q-18 111 -29 213l-15 43q-5 16 -32 175q-42 -168 -115 -255q-26 -47 -88 -184q137 12 240 4l26 3q5 1 13 1zM556 1727q79 92 129 99q89 12 77 -139q-1 -77 18 -134l1 -8q-3 -18 -44 -24l-18 -2q-43 -5 -48 60t-33 122q-31 -36 -74 -187
q-27 -27 -80 -33q-45 -6 -61 54q127 191 133 192z" />
    <glyph glyph-name="Atilde" unicode="&#xc3;" 
d="M114 643q82 235 160 380l16 44q19 51 112 201q34 53 165 137t247 47l6 -19q-2 -104 48 -458q-14 -199 91 -1075l-11 -10l-13 -4q-130 -44 -222 335q-35 143 -61 276q-36 2 -79 5q-76 22 -298 38q-101 -233 -263 -622l-11 -2l-9 3q-91 37 37 462q27 90 54 171q-14 0 -29 1
l-5 7v8q-5 47 65 75zM617 690q-18 111 -29 213l-15 43q-5 16 -32 175q-42 -168 -115 -255q-26 -47 -88 -184q137 12 240 4l26 3q5 1 13 1zM657 1544q131 -70 233.5 43.5t59.5 164t-108 -24.5q-57 -67 -132 -26q-9 7 -21 13q-21 15 -40 21q-1 1 -3 1q-140 65 -244.5 -28
t-57.5 -137.5t113 17.5q48 46 91.5 18.5t108.5 -62.5z" />
    <glyph glyph-name="Adieresis" unicode="&#xc4;" 
d="M114 643q82 235 160 380l16 44q19 51 112 201q34 53 165 137t247 47l6 -19q-2 -104 48 -458q-14 -199 91 -1075l-11 -10l-13 -4q-130 -44 -222 335q-35 143 -61 276q-36 2 -79 5q-76 22 -298 38q-101 -233 -263 -622l-11 -2l-9 3q-91 37 37 462q27 90 54 171q-14 0 -29 1
l-5 7v8q-5 47 65 75zM617 690q-18 111 -29 213l-15 43q-5 16 -32 175q-42 -168 -115 -255q-26 -47 -88 -184q137 12 240 4l26 3q5 1 13 1zM476 1742h21q77 0 95 -111v-5q0 -83 -100 -90q-73 0 -111 100v21q0 68 95 85zM819 1739h21q77 0 95 -111v-5q0 -83 -100 -90
q-73 0 -111 100v21q0 68 95 85z" />
    <glyph glyph-name="Aring" unicode="&#xc5;" 
d="M114 643q82 235 160 380l16 44q19 51 112 201q34 53 165 137t247 47l6 -19q-2 -104 48 -458q-14 -199 91 -1075l-11 -10l-13 -4q-130 -44 -222 335q-35 143 -61 276q-36 2 -79 5q-76 22 -298 38q-101 -233 -263 -622l-11 -2l-9 3q-91 37 37 462q27 90 54 171q-14 0 -29 1
l-5 7v8q-5 47 65 75zM617 690q-18 111 -29 213l-15 43q-5 16 -32 175q-42 -168 -115 -255q-26 -47 -88 -184q137 12 240 4l26 3q5 1 13 1zM698 1809h12q85 -17 139 -69q38 -33 38 -85q0 -84 -86 -142q-44 -15 -65 -15q-59 0 -108 41q-21 29 -21 33h-5v-2l-5 26q4 50 48 108
q46 36 79 36q45 0 82 -38v-6q0 -19 -17 -19q-13 0 -36 4q-29 0 -41 -68q0 -25 26 -41h3q24 0 62 48q19 27 19 43v26q-6 28 -38 57q-20 21 -91 33q-10 6 -10 12q0 12 15 18z" />
    <glyph glyph-name="AE" unicode="&#xc6;" horiz-adv-x="1861" 
d="M617 690q-18 111 -29 213l-15 43q-5 16 -32 175q-42 -168 -115 -255q-26 -47 -88 -184q137 12 240 4l26 3q5 1 13 1zM950 -21q4 -39 9 -79l-11 -10l-13 -4q-130 -44 -222 335q-35 143 -61 276q-36 2 -79 5q-76 22 -298 38q-101 -233 -263 -622l-11 -2l-9 3q-91 37 37 462
q27 90 54 171q-14 0 -29 1l-5 7v8q-5 47 65 75q82 235 160 380l16 44q19 51 112 201q34 53 165 137t247 47l6 -19q-2 -104 48 -458q-7 -97 15 -357q83 57 211 119q-21 11 -50 26q-140 95 -124 212l1 8q32 243 535 500q203 88 296 88q48 0 88 -148l-2 -12q-3 -25 -156 -28
q-89 -20 -233 -104q-218 -128 -230 -224q-33 -156 106 -238t123 -153t-204.5 -100.5t-234.5 -95.5q-67 -98 71 -236q207 -140 281 -140q54 13 67 28l22 32q9 47 4 104q-33 112 -9 148l3 4q5 7 14 8h74q137 0 149 -168q15 -69 -30 -192l-54 -80q-140 -132 -284 -132
q-132 0 -304 96q-36 22 -63 39z" />
    <glyph glyph-name="Ccedilla" unicode="&#xc7;" horiz-adv-x="1118" 
d="M644 1422q210 103 312 103q53 0 119 -173v-14q0 -29 -167 -32q-96 -24 -242 -122q-219 -149 -219 -261q-184 -393 -125 -621q99 -274 333 -270q56 18 70 39l25 45q24 127 140.5 135.5t59.5 -164.5l-63 -112q-153 -187 -297 -187q-132 0 -296 135q-140 126 -131 141
q-77 55 -136 255q-21 218 144.5 583.5t472.5 519.5zM512 -216.5q-84 -30.5 -34.5 -129.5t-33.5 -156.5t-38 -109.5t171 40t72.5 239t-137.5 116.5z" />
    <glyph glyph-name="Egrave" unicode="&#xc8;" horiz-adv-x="1024" 
d="M504.5 517.5q-188.5 -29.5 -234.5 -95.5q-67 -98 71 -236q207 -140 281 -140q54 13 67 28l22 32q9 47 4 104q-33 112 -9 148l3 4q5 7 14 8h74q137 0 149 -168q15 -69 -30 -192l-54 -80q-140 -132 -284 -132q-132 0 -304 96q-147 89 -140 100q-80 39 -152 180
q-39 172 38 284q73 107 335 233q-21 11 -50 26q-140 95 -124 212l1 8q32 243 535 500q203 88 296 88q48 0 88 -148l-2 -12q-3 -25 -156 -28q-89 -20 -233 -104q-218 -128 -230 -224q-33 -156 106 -238t123 -153t-204.5 -100.5zM594 1519.5q-74 -50.5 -189.5 89.5t-4.5 188.5
t189.5 -89.5t4.5 -188.5z" />
    <glyph glyph-name="Eacute" unicode="&#xc9;" horiz-adv-x="1024" 
d="M504.5 517.5q-188.5 -29.5 -234.5 -95.5q-67 -98 71 -236q207 -140 281 -140q54 13 67 28l22 32q9 47 4 104q-33 112 -9 148l3 4q5 7 14 8h74q137 0 149 -168q15 -69 -30 -192l-54 -80q-140 -132 -284 -132q-132 0 -304 96q-147 89 -140 100q-80 39 -152 180
q-39 172 38 284q73 107 335 233q-21 11 -50 26q-140 95 -124 212l1 8q32 243 535 500q203 88 296 88q48 0 88 -148l-2 -12q-3 -25 -156 -28q-89 -20 -233 -104q-218 -128 -230 -224q-33 -156 106 -238t123 -153t-204.5 -100.5zM461.5 1529.5q-62.5 64.5 55.5 202.5t185 37
t-55.5 -202.5t-185 -37z" />
    <glyph glyph-name="Ecircumflex" unicode="&#xca;" horiz-adv-x="1024" 
d="M504.5 517.5q-188.5 -29.5 -234.5 -95.5q-67 -98 71 -236q207 -140 281 -140q54 13 67 28l22 32q9 47 4 104q-33 112 -9 148l3 4q5 7 14 8h74q137 0 149 -168q15 -69 -30 -192l-54 -80q-140 -132 -284 -132q-132 0 -304 96q-147 89 -140 100q-80 39 -152 180
q-39 172 38 284q73 107 335 233q-21 11 -50 26q-140 95 -124 212l1 8q32 243 535 500q203 88 296 88q48 0 88 -148l-2 -12q-3 -25 -156 -28q-89 -20 -233 -104q-218 -128 -230 -224q-33 -156 106 -238t123 -153t-204.5 -100.5zM489 1730q79 92 129 99q89 12 77 -139
q-1 -77 18 -134l1 -8q-3 -18 -44 -24l-18 -2q-43 -5 -48 60t-33 122q-31 -36 -74 -187q-27 -27 -80 -33q-45 -6 -61 54q127 191 133 192z" />
    <glyph glyph-name="Edieresis" unicode="&#xcb;" horiz-adv-x="1024" 
d="M504.5 517.5q-188.5 -29.5 -234.5 -95.5q-67 -98 71 -236q207 -140 281 -140q54 13 67 28l22 32q9 47 4 104q-33 112 -9 148l3 4q5 7 14 8h74q137 0 149 -168q15 -69 -30 -192l-54 -80q-140 -132 -284 -132q-132 0 -304 96q-147 89 -140 100q-80 39 -152 180
q-39 172 38 284q73 107 335 233q-21 11 -50 26q-140 95 -124 212l1 8q32 243 535 500q203 88 296 88q48 0 88 -148l-2 -12q-3 -25 -156 -28q-89 -20 -233 -104q-218 -128 -230 -224q-33 -156 106 -238t123 -153t-204.5 -100.5zM353 1745h21q77 0 95 -111v-5q0 -83 -100 -90
q-73 0 -111 100v21q0 68 95 85zM696 1742h21q77 0 95 -111v-5q0 -83 -100 -90q-73 0 -111 100v21q0 68 95 85z" />
    <glyph glyph-name="Igrave" unicode="&#xcc;" horiz-adv-x="498" 
d="M141 1466h21q198 36 350 -75v-20q-34 -98 -98 -450q-76 -185 -193 -895l-13 -6h-14q-137 0 -142 353.5t42 592.5v46q0 53 49 222q20 70 20 118v19q0 14 -36 74v7q2 14 14 14zM341 1519.5q-74 -50.5 -189.5 89.5t-4.5 188.5t189.5 -89.5t4.5 -188.5z" />
    <glyph glyph-name="Iacute" unicode="&#xcd;" horiz-adv-x="498" 
d="M141 1466h21q198 36 350 -75v-20q-34 -98 -98 -450q-76 -185 -193 -895l-13 -6h-14q-137 0 -142 353.5t42 592.5v46q0 53 49 222q20 70 20 118v19q0 14 -36 74v7q2 14 14 14zM208.5 1529.5q-62.5 64.5 55.5 202.5t185 37t-55.5 -202.5t-185 -37z" />
    <glyph glyph-name="Icircumflex" unicode="&#xce;" horiz-adv-x="498" 
d="M141 1466h21q198 36 350 -75v-20q-34 -98 -98 -450q-76 -185 -193 -895l-13 -6h-14q-137 0 -142 353.5t42 592.5v46q0 53 49 222q20 70 20 118v19q0 14 -36 74v7q2 14 14 14zM236 1730q79 92 129 99q89 12 77 -139q-1 -77 18 -134l1 -8q-3 -18 -44 -24l-18 -2
q-43 -5 -48 60t-33 122q-31 -36 -74 -187q-27 -27 -80 -33q-45 -6 -61 54q127 191 133 192z" />
    <glyph glyph-name="Idieresis" unicode="&#xcf;" horiz-adv-x="498" 
d="M141 1466h21q198 36 350 -75v-20q-34 -98 -98 -450q-76 -185 -193 -895l-13 -6h-14q-137 0 -142 353.5t42 592.5v46q0 53 49 222q20 70 20 118v19q0 14 -36 74v7q2 14 14 14zM100 1745h21q77 0 95 -111v-5q0 -83 -100 -90q-73 0 -111 100v21q0 68 95 85zM443 1742h21
q77 0 95 -111v-5q0 -83 -100 -90q-73 0 -111 100v21q0 68 95 85z" />
    <glyph glyph-name="Eth" unicode="&#xd0;" horiz-adv-x="1315" 
d="M461 585q-19 -94 -38 -195q-35 -104 -45 -237h5q172 57 336 173q193 176 193 232q89 151 89 302q0 272 -292 386q-106 44 -227 44q-190 0 -425 -49q-40 3 -40 15q85 87 198 109q249 54 420 54q288 0 534 -262q134 -160 134 -332q0 -328 -430 -712q-169 -133 -460 -222
q-125 -30 -159 -30h-84q-89 19 -89 64q0 18 -5 45q0 100 124 615h-198v130h230q37 149 82 328q23 69 84 69h39q144 -2 144 -19q-48 -173 -93 -378h186v-130h-213z" />
    <glyph glyph-name="Ntilde" unicode="&#xd1;" horiz-adv-x="1198" 
d="M725 1259q162 0 245 -919q53 -81 187 -206v-13q-10 -33 -84 -33h-32q-184 0 -267.5 131t-86.5 479t-20 412t-222 -28q-206 -103 -253 -882q-54 -42 -161 -82q-81 0 -97 110q162 882 162 1015q0 32 -19 123v19q2 13 13 13h19q81 0 181 -155q34 -103 45 -103
q269 212 390 119zM556 1543q131 -70 233.5 43.5t59.5 164t-108 -24.5q-57 -67 -132 -26q-9 7 -21 13q-21 15 -40 21q-1 1 -3 1q-140 65 -244.5 -28t-57.5 -137.5t113 17.5q48 46 91.5 18.5t108.5 -62.5z" />
    <glyph glyph-name="Ograve" unicode="&#xd2;" horiz-adv-x="999" 
d="M624.5 1075.5q-81.5 -15.5 -217 -50t-195.5 -502.5q0 -167 139 -279h13q124 0 329 329q100 183 100 291q0 177 -43.5 202t-125 9.5zM843 1196q141 -161 141 -406q0 -402 -318 -680q-164 -71 -239 -71q-219 0 -397 194q-80 139 -80 159h-17v-8l-18 123q15 239 177 513
q170 176 375.5 280t375.5 -104zM508 1519.5q-74 -50.5 -189.5 89.5t-4.5 188.5t189.5 -89.5t4.5 -188.5z" />
    <glyph glyph-name="Oacute" unicode="&#xd3;" horiz-adv-x="999" 
d="M624.5 1075.5q-81.5 -15.5 -217 -50t-195.5 -502.5q0 -167 139 -279h13q124 0 329 329q100 183 100 291q0 177 -43.5 202t-125 9.5zM843 1196q141 -161 141 -406q0 -402 -318 -680q-164 -71 -239 -71q-219 0 -397 194q-80 139 -80 159h-17v-8l-18 123q15 239 177 513
q170 176 375.5 280t375.5 -104zM375.5 1529.5q-62.5 64.5 55.5 202.5t185 37t-55.5 -202.5t-185 -37z" />
    <glyph glyph-name="Ocircumflex" unicode="&#xd4;" horiz-adv-x="999" 
d="M624.5 1075.5q-81.5 -15.5 -217 -50t-195.5 -502.5q0 -167 139 -279h13q124 0 329 329q100 183 100 291q0 177 -43.5 202t-125 9.5zM843 1196q141 -161 141 -406q0 -402 -318 -680q-164 -71 -239 -71q-219 0 -397 194q-80 139 -80 159h-17v-8l-18 123q15 239 177 513
q170 176 375.5 280t375.5 -104zM416 1623q79 92 129 99q89 12 77 -139q-1 -77 18 -134l1 -8q-3 -18 -44 -24l-18 -2q-43 -5 -48 60t-33 122q-31 -36 -74 -187q-27 -27 -80 -33q-45 -6 -61 54q127 191 133 192z" />
    <glyph glyph-name="Otilde" unicode="&#xd5;" horiz-adv-x="999" 
d="M624.5 1075.5q-81.5 -15.5 -217 -50t-195.5 -502.5q0 -167 139 -279h13q124 0 329 329q100 183 100 291q0 177 -43.5 202t-125 9.5zM843 1196q141 -161 141 -406q0 -402 -318 -680q-164 -71 -239 -71q-219 0 -397 194q-80 139 -80 159h-17v-8l-18 123q15 239 177 513
q170 176 375.5 280t375.5 -104zM514 1436q131 -70 233.5 43.5t59.5 164t-108 -24.5q-57 -67 -132 -26q-9 7 -21 13q-21 15 -40 21q-1 1 -3 1q-140 65 -244.5 -28t-57.5 -137.5t113 17.5q48 46 91.5 18.5t108.5 -62.5z" />
    <glyph glyph-name="Odieresis" unicode="&#xd6;" horiz-adv-x="999" 
d="M624.5 1075.5q-81.5 -15.5 -217 -50t-195.5 -502.5q0 -167 139 -279h13q124 0 329 329q100 183 100 291q0 177 -43.5 202t-125 9.5zM843 1196q141 -161 141 -406q0 -402 -318 -680q-164 -71 -239 -71q-219 0 -397 194q-80 139 -80 159h-17v-8l-18 123q15 239 177 513
q170 176 375.5 280t375.5 -104zM319 1609h21q77 0 95 -111v-5q0 -83 -100 -90q-73 0 -111 100v21q0 68 95 85zM662 1606h21q77 0 95 -111v-5q0 -83 -100 -90q-73 0 -111 100v21q0 68 95 85z" />
    <glyph glyph-name="multiply" unicode="&#xd7;" horiz-adv-x="1196" 
d="M201 415l281 288l-285 279l117 120l286 -279l279 285l121 -118l-279 -286l286 -279l-118 -120l-285 279l-281 -287z" />
    <glyph glyph-name="Oslash" unicode="&#xd8;" horiz-adv-x="999" 
d="M688 1315q13 29 23 54l8 23q7 16 15 98l3 8q8 15 14 12l11 -7q118 -18 146 -195l-9 -24q-20 -34 -54 -98q132 -159 132 -396q0 -402 -318 -680q-164 -71 -239 -71q-77 0 -149 24q-59 -123 -127 -265l-9 -3l-7 5q-58 34 35 314q-73 46 -140 119q-80 139 -80 159h-17v-8
l-18 123q15 239 177 513q170 176 376 280q119 60 227 15zM249 352q136 352 253 587l20 53q10 25 32 70q-65 -14 -153 -36q-136 -35 -196 -503q0 -94 44 -171zM767 1032q-52 -104 -121 -245q-83 -131 -286 -543q123 4 326 329q100 183 100 291q0 118 -19 168z" />
    <glyph glyph-name="Ugrave" unicode="&#xd9;" horiz-adv-x="1062" 
d="M241 67q-188 217 -98.5 629t51 455t-188.5 177l-1 15q9 38 87 43l35 2q196 13 293 -131.5t12.5 -515.5t-100.5 -471t197 18q213 132 215 1026q54 51 166 104q86 6 110 -119q-117 -1019 -109 -1171q2 -37 28 -140l1 -21q-1 -15 -13 -16l-20 -1q-86 -6 -203 165
q-42 115 -54 115q-273 -261 -408 -163zM570 1519.5q-74 -50.5 -189.5 89.5t-4.5 188.5t189.5 -89.5t4.5 -188.5z" />
    <glyph glyph-name="Uacute" unicode="&#xda;" horiz-adv-x="1062" 
d="M241 67q-188 217 -98.5 629t51 455t-188.5 177l-1 15q9 38 87 43l35 2q196 13 293 -131.5t12.5 -515.5t-100.5 -471t197 18q213 132 215 1026q54 51 166 104q86 6 110 -119q-117 -1019 -109 -1171q2 -37 28 -140l1 -21q-1 -15 -13 -16l-20 -1q-86 -6 -203 165
q-42 115 -54 115q-273 -261 -408 -163zM437.5 1529.5q-62.5 64.5 55.5 202.5t185 37t-55.5 -202.5t-185 -37z" />
    <glyph glyph-name="Ucircumflex" unicode="&#xdb;" horiz-adv-x="1062" 
d="M241 67q-188 217 -98.5 629t51 455t-188.5 177l-1 15q9 38 87 43l35 2q196 13 293 -131.5t12.5 -515.5t-100.5 -471t197 18q213 132 215 1026q54 51 166 104q86 6 110 -119q-117 -1019 -109 -1171q2 -37 28 -140l1 -21q-1 -15 -13 -16l-20 -1q-86 -6 -203 165
q-42 115 -54 115q-273 -261 -408 -163zM465 1730q79 92 129 99q89 12 77 -139q-1 -77 18 -134l1 -8q-3 -18 -44 -24l-18 -2q-43 -5 -48 60t-33 122q-31 -36 -74 -187q-27 -27 -80 -33q-45 -6 -61 54q127 191 133 192z" />
    <glyph glyph-name="Udieresis" unicode="&#xdc;" horiz-adv-x="1062" 
d="M241 67q-188 217 -98.5 629t51 455t-188.5 177l-1 15q9 38 87 43l35 2q196 13 293 -131.5t12.5 -515.5t-100.5 -471t197 18q213 132 215 1026q54 51 166 104q86 6 110 -119q-117 -1019 -109 -1171q2 -37 28 -140l1 -21q-1 -15 -13 -16l-20 -1q-86 -6 -203 165
q-42 115 -54 115q-273 -261 -408 -163zM330 1745h21q77 0 95 -111v-5q0 -83 -100 -90q-73 0 -111 100v21q0 68 95 85zM673 1742h21q77 0 95 -111v-5q0 -83 -100 -90q-73 0 -111 100v21q0 68 95 85z" />
    <glyph glyph-name="Yacute" unicode="&#xdd;" horiz-adv-x="932" 
d="M713 -227h-27q-117 0 -188.5 123.5t-27 418.5t28.5 295q-185 -248 -314 -248q-232 0 -229 463q50 355 84 554v21q15 53 121 53h46q113 -5 36.5 -288.5t-38 -373t136.5 -89.5q87 0 265 703q77 67 215 62q116 0 139 -176q-102 -436 -232 -1188q0 -51 2 -279v-30
q-2 -21 -18 -21zM384.5 1529.5q-62.5 64.5 55.5 202.5t185 37t-55.5 -202.5t-185 -37z" />
    <glyph glyph-name="Thorn" unicode="&#xde;" horiz-adv-x="1315" 
d="M608 1077q-113 -510 -117 -565q-35 -104 -45 -237h5q354 12 452 123t98 262q0 272 -292 386q-49 20 -101 31zM351 1085q-137 -11 -294 -44q-40 3 -40 15q85 87 198 109q85 19 162 31q35 154 75 325q23 69 84 69h39q144 -2 144 -19q-44 -194 -79 -352q285 -2 529 -262
q134 -160 134 -332q0 -328 -265.5 -425.5t-616.5 -67.5q-133 -471 -167 -471h-84q-89 19 -89 64q0 18 -5 45q0 118 275 1315z" />
    <glyph glyph-name="germandbls" unicode="&#xdf;" horiz-adv-x="1127" 
d="M425 1474.5q231 74.5 463.5 -106t181.5 -423.5l-2 -8q-23 -117 -199 -212q-35 -15 -60 -26q224 -126 262 -233q41 -112 -58 -284q-122 -141 -217 -180q3 -11 -177 -100q-209 -96 -250.5 17.5t-9.5 124t291 150.5q189 138 154 236q-25 66 -207 95.5t-174 100.5t178 153
t189 238q21 96 -111 224q-129 65 -213.5 -8.5t-136.5 -425.5q-63 -185 -158 -895l-11 -6h-12q-112 0 -116 353.5t34 592.5v46q0 53 41 222q87 280 318 354.5z" />
    <glyph glyph-name="agrave" unicode="&#xe0;" horiz-adv-x="857" 
d="M574 862h50q145 -17 145 -50v-17q-2 -15 -240 -106q-159 -72 -240 -217l-11 -39v-11q23 -45 56 -45h28q79 0 267 206q89 84 140 84h16q8 0 34 -33v-34q-59 -401 -134 -401h-6q-55 29 -111 173h-11q-229 -151 -340 -151q-128 0 -184 128q0 17 -11 73q0 231 379 401
q126 39 173 39zM523 945.5q-74 -50.5 -189.5 89.5t-4.5 188.5t189.5 -89.5t4.5 -188.5z" />
    <glyph glyph-name="aacute" unicode="&#xe1;" horiz-adv-x="857" 
d="M574 862h50q145 -17 145 -50v-17q-2 -15 -240 -106q-159 -72 -240 -217l-11 -39v-11q23 -45 56 -45h28q79 0 267 206q89 84 140 84h16q8 0 34 -33v-34q-59 -401 -134 -401h-6q-55 29 -111 173h-11q-229 -151 -340 -151q-128 0 -184 128q0 17 -11 73q0 231 379 401
q126 39 173 39zM378.5 917.5q-62.5 64.5 55.5 202.5t185 37t-55.5 -202.5t-185 -37z" />
    <glyph glyph-name="acircumflex" unicode="&#xe2;" horiz-adv-x="857" 
d="M574 862h50q145 -17 145 -50v-17q-2 -15 -240 -106q-159 -72 -240 -217l-11 -39v-11q23 -45 56 -45h28q79 0 267 206q89 84 140 84h16q8 0 34 -33v-34q-59 -401 -134 -401h-6q-55 29 -111 173h-11q-229 -151 -340 -151q-128 0 -184 128q0 17 -11 73q0 231 379 401
q126 39 173 39zM459 1134q79 92 129 99q89 12 77 -139q-1 -77 18 -134l1 -8q-3 -18 -44 -24l-18 -2q-43 -5 -48 60t-33 122q-31 -36 -74 -187q-27 -27 -80 -33q-45 -6 -61 54q127 191 133 192z" />
    <glyph glyph-name="atilde" unicode="&#xe3;" horiz-adv-x="857" 
d="M574 862h50q145 -17 145 -50v-17q-2 -15 -240 -106q-159 -72 -240 -217l-11 -39v-11q23 -45 56 -45h28q79 0 267 206q89 84 140 84h16q8 0 34 -33v-34q-59 -401 -134 -401h-6q-55 29 -111 173h-11q-229 -151 -340 -151q-128 0 -184 128q0 17 -11 73q0 231 379 401
q126 39 173 39zM529 969q131 -70 233.5 43.5t59.5 164t-108 -24.5q-57 -67 -132 -26q-9 7 -21 13q-21 15 -40 21q-1 1 -3 1q-140 65 -244.5 -28t-57.5 -137.5t113 17.5q48 46 91.5 18.5t108.5 -62.5z" />
    <glyph glyph-name="adieresis" unicode="&#xe4;" horiz-adv-x="857" 
d="M574 862h50q145 -17 145 -50v-17q-2 -15 -240 -106q-159 -72 -240 -217l-11 -39v-11q23 -45 56 -45h28q79 0 267 206q89 84 140 84h16q8 0 34 -33v-34q-59 -401 -134 -401h-6q-55 29 -111 173h-11q-229 -151 -340 -151q-128 0 -184 128q0 17 -11 73q0 231 379 401
q126 39 173 39zM346 1140h21q77 0 95 -111v-5q0 -83 -100 -90q-73 0 -111 100v21q0 68 95 85zM689 1137h21q77 0 95 -111v-5q0 -83 -100 -90q-73 0 -111 100v21q0 68 95 85z" />
    <glyph glyph-name="aring" unicode="&#xe5;" horiz-adv-x="857" 
d="M574 862h50q145 -17 145 -50v-17q-2 -15 -240 -106q-159 -72 -240 -217l-11 -39v-11q23 -45 56 -45h28q79 0 267 206q89 84 140 84h16q8 0 34 -33v-34q-59 -401 -134 -401h-6q-55 29 -111 173h-11q-229 -151 -340 -151q-128 0 -184 128q0 17 -11 73q0 231 379 401
q126 39 173 39zM501 1217h12q85 -17 139 -69q38 -33 38 -85q0 -84 -86 -142q-44 -15 -65 -15q-59 0 -108 41q-21 29 -21 33h-5v-2l-5 26q4 50 48 108q46 36 79 36q45 0 82 -38v-6q0 -19 -17 -19q-13 0 -36 4q-29 0 -41 -68q0 -25 26 -41h3q24 0 62 48q19 27 19 43v26
q-6 28 -38 57q-20 21 -91 33q-10 6 -10 12q0 12 15 18z" />
    <glyph glyph-name="ae" unicode="&#xe6;" horiz-adv-x="1294" 
d="M704 205q-10 -6 -19 -6h-6q-55 29 -111 173h-11q-229 -151 -340 -151q-128 0 -184 128q0 17 -11 73q0 231 379 401q126 39 173 39h50q30 -4 54 -8q64 78 170 123q59 17 104 17q112 0 244 -191q0 -18 11 -47q-31 -138 -243 -278q-52 -12 -76 -12h-5q-9 0 -18 18
q0 34 122 226q23 58 23 98v6q0 79 -87 110q-82 -21 -109 -284q3 -3 5 -6v-34q-6 -39 -12 -75q6 -221 134 -221h11q243 52 284 52h6q18 0 18 -23q0 -45 -209 -157q-61 -35 -157 -52q-112 0 -190 81zM606 719q-35 -14 -77 -30q-159 -72 -240 -217l-11 -39v-11q23 -45 56 -45
h28q69 0 220 156q-1 4 -1 9q0 98 25 177z" />
    <glyph glyph-name="ccedilla" unicode="&#xe7;" horiz-adv-x="808" 
d="M510 896l49 10q145 12 152 -23l3 -17q1 -17 -244 -179q-113 -89 -165 -258l-3 -43l2 -12q31 -42 63 -35l27 6q78 16 140 99t111 93l17 3q7 2 39 -28l6 -35l-131 -157l-11 -3q-174 -143 -283 -166q-126 -26 -205 97q-3 18 -25 74q-44 243 295 498q117 67 163 76z
M415 180.5q-84 -30.5 -34.5 -129.5t-33.5 -156.5t-38 -109.5t171 40t72.5 239t-137.5 116.5z" />
    <glyph glyph-name="egrave" unicode="&#xe8;" horiz-adv-x="743" 
d="M401 994q112 0 244 -191q0 -18 11 -47q-31 -138 -243 -278q-52 -12 -76 -12h-5q-9 0 -18 18q0 34 122 226q23 58 23 98v6q0 79 -87 110q-95 -24 -116 -377q0 -243 134 -243h11q243 52 284 52h6q18 0 18 -23q0 -45 -209 -157q-61 -35 -157 -52q-199 0 -290 255
q-17 73 -23 163q0 322 267 435q59 17 104 17zM428 1109.5q-74 -50.5 -189.5 89.5t-4.5 188.5t189.5 -89.5t4.5 -188.5z" />
    <glyph glyph-name="eacute" unicode="&#xe9;" horiz-adv-x="743" 
d="M401 994q112 0 244 -191q0 -18 11 -47q-31 -138 -243 -278q-52 -12 -76 -12h-5q-9 0 -18 18q0 34 122 226q23 58 23 98v6q0 79 -87 110q-95 -24 -116 -377q0 -243 134 -243h11q243 52 284 52h6q18 0 18 -23q0 -45 -209 -157q-61 -35 -157 -52q-199 0 -290 255
q-17 73 -23 163q0 322 267 435q59 17 104 17zM295.5 1119.5q-62.5 64.5 55.5 202.5t185 37t-55.5 -202.5t-185 -37z" />
    <glyph glyph-name="ecircumflex" unicode="&#xea;" horiz-adv-x="743" 
d="M401 994q112 0 244 -191q0 -18 11 -47q-31 -138 -243 -278q-52 -12 -76 -12h-5q-9 0 -18 18q0 34 122 226q23 58 23 98v6q0 79 -87 110q-95 -24 -116 -377q0 -243 134 -243h11q243 52 284 52h6q18 0 18 -23q0 -45 -209 -157q-61 -35 -157 -52q-199 0 -290 255
q-17 73 -23 163q0 322 267 435q59 17 104 17zM323 1320q79 92 129 99q89 12 77 -139q-1 -77 18 -134l1 -8q-3 -18 -44 -24l-18 -2q-43 -5 -48 60t-33 122q-31 -36 -74 -187q-27 -27 -80 -33q-45 -6 -61 54q127 191 133 192z" />
    <glyph glyph-name="edieresis" unicode="&#xeb;" horiz-adv-x="743" 
d="M401 994q112 0 244 -191q0 -18 11 -47q-31 -138 -243 -278q-52 -12 -76 -12h-5q-9 0 -18 18q0 34 122 226q23 58 23 98v6q0 79 -87 110q-95 -24 -116 -377q0 -243 134 -243h11q243 52 284 52h6q18 0 18 -23q0 -45 -209 -157q-61 -35 -157 -52q-199 0 -290 255
q-17 73 -23 163q0 322 267 435q59 17 104 17zM188 1335h21q77 0 95 -111v-5q0 -83 -100 -90q-73 0 -111 100v21q0 68 95 85zM531 1332h21q77 0 95 -111v-5q0 -83 -100 -90q-73 0 -111 100v21q0 68 95 85z" />
    <glyph glyph-name="igrave" unicode="&#xec;" horiz-adv-x="416" 
d="M37 935h15q223 0 332 -86v-15q-25 -76 -70 -347q-56 -142 -86 -317l-10 -5h-10q-16 0 -85 181q-41 111 -41 176v35q0 41 36 171q15 54 15 91v15q0 11 -106 85v5q2 11 10 11zM264 1109.5q-74 -50.5 -189.5 89.5t-4.5 188.5t189.5 -89.5t4.5 -188.5z" />
    <glyph glyph-name="iacute" unicode="&#xed;" horiz-adv-x="416" 
d="M37 935h15q223 0 332 -86v-15q-25 -76 -70 -347q-56 -142 -86 -317l-10 -5h-10q-16 0 -85 181q-41 111 -41 176v35q0 41 36 171q15 54 15 91v15q0 11 -106 85v5q2 11 10 11zM131.5 1119.5q-62.5 64.5 55.5 202.5t185 37t-55.5 -202.5t-185 -37z" />
    <glyph glyph-name="icircumflex" unicode="&#xee;" horiz-adv-x="416" 
d="M37 935h15q223 0 332 -86v-15q-25 -76 -70 -347q-56 -142 -86 -317l-10 -5h-10q-16 0 -85 181q-41 111 -41 176v35q0 41 36 171q15 54 15 91v15q0 11 -106 85v5q2 11 10 11zM159 1320q79 92 129 99q89 12 77 -139q-1 -77 18 -134l1 -8q-3 -18 -44 -24l-18 -2
q-43 -5 -48 60t-33 122q-31 -36 -74 -187q-27 -27 -80 -33q-45 -6 -61 54q127 191 133 192z" />
    <glyph glyph-name="idieresis" unicode="&#xef;" horiz-adv-x="416" 
d="M38 935h15q223 0 332 -86v-15q-25 -76 -70 -347q-56 -142 -86 -317l-10 -5h-10q-16 0 -85 181q-41 111 -41 176v35q0 41 36 171q15 54 15 91v15q0 11 -106 85v5q2 11 10 11zM24 1335h21q77 0 95 -111v-5q0 -83 -100 -90q-73 0 -111 100v21q0 68 95 85zM367 1332h21
q77 0 95 -111v-5q0 -83 -100 -90q-73 0 -111 100v21q0 68 95 85z" />
    <glyph glyph-name="eth" unicode="&#xf0;" horiz-adv-x="873" 
d="M250 625q-29 -74 -18 -210q36 -246 112 -257l8 -1q115 65 160 182q90 329 16.5 364.5t-118.5 53.5t-78.5 4.5t-81.5 -136.5zM761 1090q107 -297 -47 -793l-46 -83l2 5l-11 2q-6 -14 -99 -102q-176 -117 -328 -95q-52 8 -147 74q-147 224 -38 503q66 170 208 267
q174 127 289 34q21 -17 41 -35q-3 24 -6 51q22 77 -61 191q-90 3 -215 1l-5 7l-5 7q-41 73 95 109l14 4q-50 45 -92 64q-130 22 -123 47l3 12q92 142 133 136q79 -11 219 -124q65 -44 114 -101q26 2 91 -6q33 -5 52 0l7 2q5 1 18 26h3q6 1 9 -6l6 -11q74 -102 76 -194l-8 -2
q-39 7 -149 10z" />
    <glyph glyph-name="ntilde" unicode="&#xf1;" horiz-adv-x="1108" 
d="M91 909h19q81 0 181 -155q34 -103 45 -103q129 155 219 155q162 0 336 -310q53 -81 187 -206v-13q-10 -33 -84 -33h-32q-184 0 -342 220q-106 129 -174 129q-61 0 -97 -265q-54 -42 -226 -90q-81 0 -97 110q71 273 71 406q0 32 -19 123v19q2 13 13 13zM563 1133
q131 -70 233.5 43.5t59.5 164t-108 -24.5q-57 -67 -132 -26q-9 7 -21 13q-21 15 -40 21q-1 1 -3 1q-140 65 -244.5 -28t-57.5 -137.5t113 17.5q48 46 91.5 18.5t108.5 -62.5z" />
    <glyph glyph-name="ograve" unicode="&#xf2;" horiz-adv-x="717" 
d="M245 1123h30q213 -56 350 -223q96 -110 96 -277q0 -274 -217 -464q-111 -48 -163 -48q-149 0 -271 133q-54 94 -54 108h-12v-6l-12 84q10 163 120 350q117 120 199 120q114 0 205 -126v-18q0 -61 -42 -61q-33 0 -90 12q-74 0 -103 -223q0 -79 66 -132h6q60 0 157 157
q48 87 48 138v84q-16 92 -96 187q-50 68 -229 109q-24 18 -24 36q0 39 36 60zM415 1109.5q-74 -50.5 -189.5 89.5t-4.5 188.5t189.5 -89.5t4.5 -188.5z" />
    <glyph glyph-name="oacute" unicode="&#xf3;" horiz-adv-x="717" 
d="M245 1123h30q213 -56 350 -223q96 -110 96 -277q0 -274 -217 -464q-111 -48 -163 -48q-149 0 -271 133q-54 94 -54 108h-12v-6l-12 84q10 163 120 350q117 120 199 120q114 0 205 -126v-18q0 -61 -42 -61q-33 0 -90 12q-74 0 -103 -223q0 -79 66 -132h6q60 0 157 157
q48 87 48 138v84q-16 92 -96 187q-50 68 -229 109q-24 18 -24 36q0 39 36 60zM282.5 1119.5q-62.5 64.5 55.5 202.5t185 37t-55.5 -202.5t-185 -37z" />
    <glyph glyph-name="ocircumflex" unicode="&#xf4;" horiz-adv-x="717" 
d="M245 1123h30q213 -56 350 -223q96 -110 96 -277q0 -274 -217 -464q-111 -48 -163 -48q-149 0 -271 133q-54 94 -54 108h-12v-6l-12 84q10 163 120 350q117 120 199 120q114 0 205 -126v-18q0 -61 -42 -61q-33 0 -90 12q-74 0 -103 -223q0 -79 66 -132h6q60 0 157 157
q48 87 48 138v84q-16 92 -96 187q-50 68 -229 109q-24 18 -24 36q0 39 36 60zM310 1320q79 92 129 99q89 12 77 -139q-1 -77 18 -134l1 -8q-3 -18 -44 -24l-18 -2q-43 -5 -48 60t-33 122q-31 -36 -74 -187q-27 -27 -80 -33q-45 -6 -61 54q127 191 133 192z" />
    <glyph glyph-name="otilde" unicode="&#xf5;" horiz-adv-x="717" 
d="M245 1123h30q213 -56 350 -223q96 -110 96 -277q0 -274 -217 -464q-111 -48 -163 -48q-149 0 -271 133q-54 94 -54 108h-12v-6l-12 84q10 163 120 350q117 120 199 120q114 0 205 -126v-18q0 -61 -42 -61q-33 0 -90 12q-74 0 -103 -223q0 -79 66 -132h6q60 0 157 157
q48 87 48 138v84q-16 92 -96 187q-50 68 -229 109q-24 18 -24 36q0 39 36 60zM367 1133q131 -70 233.5 43.5t59.5 164t-108 -24.5q-57 -67 -132 -26q-9 7 -21 13q-21 15 -40 21q-1 1 -3 1q-140 65 -244.5 -28t-57.5 -137.5t113 17.5q48 46 91.5 18.5t108.5 -62.5z" />
    <glyph glyph-name="odieresis" unicode="&#xf6;" horiz-adv-x="717" 
d="M245 1123h30q213 -56 350 -223q96 -110 96 -277q0 -274 -217 -464q-111 -48 -163 -48q-149 0 -271 133q-54 94 -54 108h-12v-6l-12 84q10 163 120 350q117 120 199 120q114 0 205 -126v-18q0 -61 -42 -61q-33 0 -90 12q-74 0 -103 -223q0 -79 66 -132h6q60 0 157 157
q48 87 48 138v84q-16 92 -96 187q-50 68 -229 109q-24 18 -24 36q0 39 36 60zM175 1335h21q77 0 95 -111v-5q0 -83 -100 -90q-73 0 -111 100v21q0 68 95 85zM518 1332h21q77 0 95 -111v-5q0 -83 -100 -90q-73 0 -111 100v21q0 68 95 85z" />
    <glyph glyph-name="divide" unicode="&#xf7;" horiz-adv-x="778" 
d="M343 321h21q77 0 95 -111v-5q0 -83 -100 -90q-73 0 -111 100v21q0 68 95 85zM402 903h21q77 0 95 -111v-5q0 -83 -100 -90q-73 0 -111 100v21q0 68 95 85zM640 627l7 -11q81 -102 84 -194l-8 -2q-54 9 -226 11q-104 23 -448 19l-5 7l-6 7q-45 73 105 109t267 33l20 4
q22 5 111 -5q37 -5 58 0l8 2q6 1 20 26h3q7 1 10 -6z" />
    <glyph glyph-name="oslash" unicode="&#xf8;" horiz-adv-x="717" 
d="M393 705q-4 1 -9 2q-74 0 -103 -223q0 -13 2 -25q62 142 110 246zM484 891q-11 13 -22 27q-50 68 -229 109q-24 18 -24 36q0 39 36 60h30q146 -38 257 -129q16 28 39 66q27 43 39 76l4 12q4 10 1 56l1 5q5 9 11 7l10 -4q106 -11 153 -112l-5 -13q-35 -52 -128 -229
q64 -99 64 -235q0 -274 -217 -464q-111 -48 -163 -48q-48 0 -93 14q-45 -85 -95 -180l-8 -2l-7 3q-48 17 24 219q-48 31 -92 79q-54 94 -54 108h-12v-6l-12 84q10 163 120 350q117 120 199 120q79 0 147 -60q13 27 25 49zM558 691q-68 -117 -186 -336q55 20 138 154
q48 87 48 138v44z" />
    <glyph glyph-name="ugrave" unicode="&#xf9;" horiz-adv-x="644" 
d="M597 163h-19q-81 0 -181 155q-34 103 -45 103q-129 -155 -219 -155q-162 0 -160 290q23 98 47 223v13q10 33 84 33h32q79 -3 31.5 -118.5t-20.5 -171.5t95 -56q61 0 173 316q54 42 150 39q81 0 97 -110q-71 -273 -71 -406q0 -32 19 -123v-19q-2 -13 -13 -13zM372 920.5
q-74 -50.5 -189.5 89.5t-4.5 188.5t189.5 -89.5t4.5 -188.5z" />
    <glyph glyph-name="uacute" unicode="&#xfa;" horiz-adv-x="644" 
d="M597 163h-19q-81 0 -181 155q-34 103 -45 103q-129 -155 -219 -155q-162 0 -160 290q23 98 47 223v13q10 33 84 33h32q79 -3 31.5 -118.5t-20.5 -171.5t95 -56q61 0 173 316q54 42 150 39q81 0 97 -110q-71 -273 -71 -406q0 -32 19 -123v-19q-2 -13 -13 -13zM237.5 914.5
q-62.5 64.5 55.5 202.5t185 37t-55.5 -202.5t-185 -37z" />
    <glyph glyph-name="ucircumflex" unicode="&#xfb;" horiz-adv-x="644" 
d="M597 163h-19q-81 0 -181 155q-34 103 -45 103q-129 -155 -219 -155q-162 0 -160 290q23 98 47 223v13q10 33 84 33h32q79 -3 31.5 -118.5t-20.5 -171.5t95 -56q61 0 173 316q54 42 150 39q81 0 97 -110q-71 -273 -71 -406q0 -32 19 -123v-19q-2 -13 -13 -13zM284 1128
q79 92 129 99q89 12 77 -139q-1 -77 18 -134l1 -8q-3 -18 -44 -24l-18 -2q-43 -5 -48 60t-33 122q-31 -36 -74 -187q-27 -27 -80 -33q-45 -6 -61 54q127 191 133 192z" />
    <glyph glyph-name="udieresis" unicode="&#xfc;" horiz-adv-x="644" 
d="M597 163h-19q-81 0 -181 155q-34 103 -45 103q-129 -155 -219 -155q-162 0 -160 290q23 98 47 223v13q10 33 84 33h32q79 -3 31.5 -118.5t-20.5 -171.5t95 -56q61 0 173 316q54 42 150 39q81 0 97 -110q-71 -273 -71 -406q0 -32 19 -123v-19q-2 -13 -13 -13zM166 1111h21
q77 0 95 -111v-5q0 -83 -100 -90q-73 0 -111 100v21q0 68 95 85zM509 1108h21q77 0 95 -111v-5q0 -83 -100 -90q-73 0 -111 100v21q0 68 95 85z" />
    <glyph glyph-name="yacute" unicode="&#xfd;" horiz-adv-x="680" 
d="M489 -227h-19q-81 0 -131 77.5t-13 324t26 246.5q-129 -155 -219 -155q-162 0 -160 290q23 98 47 223v13q10 33 84 33h32q79 -3 31.5 -118.5t-20.5 -171.5t95 -56q61 0 173 316q54 42 150 39q81 0 97 -110q-71 -273 -162 -744q0 -32 2 -175v-19q-2 -13 -13 -13z
M239.5 882.5q-62.5 64.5 55.5 202.5t185 37t-55.5 -202.5t-185 -37z" />
    <glyph glyph-name="thorn" unicode="&#xfe;" horiz-adv-x="734" 
d="M97 944h-1q-1 -8 1 0zM344 976q187 -28 241 -100q120 -158 96 -300q-6 -39 -29 -84q-93 -167 -184 -175q-124 -9 -249 79l-10 -1l-7 -42q-51 -132 -39 -423t9 -309q-16 -33 -32 -38l-5 -1q-32 -2 -87 80q-99 199 -89 467q8 218 99 616q20 128 45 233l5 46q5 52 56 217
q21 69 26 116l2 19q1 14 -19 76v7q3 14 12 13l15 -1q145 22 244 -99l-1 -20q-32 -86 -99 -376zM313 868q-30 -87 -70 -243q18 -108 72 -103q144 10 164 73l6 37q9 193 -172 236z" />
    <glyph glyph-name="ydieresis" unicode="&#xff;" horiz-adv-x="680" 
d="M489 -227h-19q-81 0 -131 77.5t-13 324t26 246.5q-129 -155 -219 -155q-162 0 -160 290q23 98 47 223v13q10 33 84 33h32q79 -3 31.5 -118.5t-20.5 -171.5t95 -56q61 0 173 316q54 42 150 39q81 0 97 -110q-71 -273 -162 -744q0 -32 2 -175v-19q-2 -13 -13 -13zM138 1106
h21q77 0 95 -111v-5q0 -83 -100 -90q-73 0 -111 100v21q0 68 95 85zM481 1103h21q77 0 95 -111v-5q0 -83 -100 -90q-73 0 -111 100v21q0 68 95 85z" />
    <glyph glyph-name="Iogonek" unicode="&#x12e;" horiz-adv-x="498" 
d="M141 1466h21q198 36 350 -75v-20q-34 -98 -98 -450q-76 -185 -193 -895l-13 -6h-14q-137 0 -142 353.5t42 592.5v46q0 53 49 222q20 70 20 118v19q0 14 -36 74v7q2 14 14 14zM344.5 -336q112.5 -92 153 -40t-34 109.5t-30 156.5t-31 129.5t-123 -116.5t65 -239z" />
    <glyph glyph-name="obreve" unicode="&#x14f;" horiz-adv-x="717" 
d="M245 1123h30q213 -56 350 -223q96 -110 96 -277q0 -274 -217 -464q-111 -48 -163 -48q-149 0 -271 133q-54 94 -54 108h-12v-6l-12 84q10 163 120 350q117 120 199 120q114 0 205 -126v-18q0 -61 -42 -61q-33 0 -90 12q-74 0 -103 -223q0 -79 66 -132h6q60 0 157 157
q48 87 48 138v84q-16 92 -96 187q-50 68 -229 109q-24 18 -24 36q0 39 36 60zM576.5 1289.5q-32.5 83.5 -130.5 32t-173 5.5t-126 11t59 -145t256.5 -43t114 139.5z" />
    <glyph glyph-name="Ohungarumlaut" unicode="&#x150;" horiz-adv-x="999" 
d="M624.5 1075.5q-81.5 -15.5 -217 -50t-195.5 -502.5q0 -167 139 -279h13q124 0 329 329q100 183 100 291q0 177 -43.5 202t-125 9.5zM843 1196q141 -161 141 -406q0 -402 -318 -680q-164 -71 -239 -71q-219 0 -397 194q-80 139 -80 159h-17v-8l-18 123q15 239 177 513
q170 176 375.5 280t375.5 -104zM185.5 1529.5q-62.5 64.5 55.5 202.5t185 37t-55.5 -202.5t-185 -37zM471.5 1529.5q-62.5 64.5 55.5 202.5t185 37t-55.5 -202.5t-185 -37z" />
    <glyph glyph-name="OE" unicode="&#x152;" horiz-adv-x="1630" 
d="M407.5 1025.5q-135.5 -34.5 -195.5 -502.5q0 -167 139 -279h13q124 0 329 329q100 183 100 291q0 177 -43.5 202t-125 9.5t-217 -50zM677 120q-5 -5 -11 -10q-164 -71 -239 -71q-219 0 -397 194q-80 139 -80 159h-17v-8l-18 123q15 239 177 513q170 176 375.5 280
t375.5 -104q37 -42 64 -90q124 169 467 344q203 88 296 88q48 0 88 -148l-2 -12q-3 -25 -156 -28q-89 -20 -233 -104q-218 -128 -230 -224q-33 -156 106 -238t123 -153t-204.5 -100.5t-234.5 -95.5q-67 -98 71 -236q207 -140 281 -140q54 13 67 28l22 32q9 47 4 104
q-33 112 -9 148l3 4q5 7 14 8h74q137 0 149 -168q15 -69 -30 -192l-54 -80q-140 -132 -284 -132q-132 0 -304 96q-147 89 -140 100q-59 29 -114 113z" />
    <glyph glyph-name="oe" unicode="&#x153;" horiz-adv-x="1298" 
d="M636 312q-51 -82 -132 -153q-111 -48 -163 -48q-149 0 -271 133q-54 94 -54 108h-12v-6l-12 84q10 163 120 350q117 120 199 120q114 0 205 -126v-18q0 -61 -42 -61q-33 0 -90 12q-74 0 -103 -223q0 -79 66 -132h6q60 0 157 157q48 87 48 138v84q-16 92 -96 187
q-50 68 -229 109q-24 18 -24 36q0 39 36 60h30q213 -56 350 -223q25 -29 44 -62q66 89 183 139q59 17 104 17q112 0 244 -191q0 -18 11 -47q-31 -138 -243 -278q-52 -12 -76 -12h-5q-9 0 -18 18q0 34 122 226q23 58 23 98v6q0 79 -87 110q-95 -24 -116 -377q0 -243 134 -243
h11q243 52 284 52h6q18 0 18 -23q0 -45 -209 -157q-61 -35 -157 -52q-171 0 -262 188z" />
    <glyph glyph-name="Scaron" unicode="&#x160;" horiz-adv-x="1235" 
d="M1027 1525q48 0 108 -148v-12q0 -25 -152 -28q-87 -20 -220 -104q-200 -128 -200 -224v-28q0 -75 192 -140q480 -225 480 -400q0 -112 -160 -284q-171 -141 -280 -180q0 -11 -212 -100q-242 -96 -376 -96q-146 0 -196 132v80q40 123 104 192q129 168 268 168h76
q8 -1 8 -8v-4q0 -36 -112 -148q-45 -57 -68 -104v-32q2 -15 48 -28q76 0 384 140q236 138 236 236q0 111 -420 256q-8 7 -108 56q-152 95 -152 212v8q0 243 468 500q191 88 284 88zM661 1569q-83 -89 -132 -94q-90 -8 -72 142q4 78 -13 135v8q4 18 45 22l18 2q44 2 46 -62.5
t27 -122.5q33 34 82 183q28 26 82 29q45 4 58 -55q-135 -186 -141 -187z" />
    <glyph glyph-name="scaron" unicode="&#x161;" horiz-adv-x="702" 
d="M675 868l-2 -19q-8 -80 -283 -87q-142 -36 2 -146t135 -199q-16 -162 -341 -304q-106 -39 -173 49t167 224q139 92 117 140.5t-153 93t-76 167t187.5 113.5t264.5 -22q32 -4 125 6l19 -1q12 -4 11 -15zM375 1159q-83 -89 -132 -94q-90 -8 -72 142q4 78 -13 135v8
q4 18 45 22l18 2q44 2 46 -62.5t27 -122.5q33 34 82 183q28 26 82 29q45 4 58 -55q-135 -186 -141 -187z" />
    <glyph glyph-name="Ydieresis" unicode="&#x178;" horiz-adv-x="932" 
d="M713 -227h-27q-117 0 -188.5 123.5t-27 418.5t28.5 295q-185 -248 -314 -248q-232 0 -229 463q50 355 84 554v21q15 53 121 53h46q113 -5 36.5 -288.5t-38 -373t136.5 -89.5q87 0 265 703q77 67 215 62q116 0 139 -176q-102 -436 -232 -1188q0 -51 2 -279v-30
q-2 -21 -18 -21zM276 1745h21q77 0 95 -111v-5q0 -83 -100 -90q-73 0 -111 100v21q0 68 95 85zM619 1742h21q77 0 95 -111v-5q0 -83 -100 -90q-73 0 -111 100v21q0 68 95 85z" />
    <glyph glyph-name="zacute" unicode="&#x17a;" horiz-adv-x="727" 
d="M170 975l19 1q88 -10 121 -6q131 13 262.5 22t158 -113.5t-111 -167t-244.5 -156t158 -77.5q198 -136 113.5 -224t-179.5 -49q-477 -39 -440 182q185 211 350 321t34 146q-267 7 -257 87l2 19q1 11 14 15zM305.5 1119.5q-62.5 64.5 55.5 202.5t185 37t-55.5 -202.5
t-185 -37z" />
    <glyph glyph-name="Zcaron" unicode="&#x17d;" horiz-adv-x="1124" 
d="M141 1462l20 1q97 -11 132 -7q470 -8 613 1.5t172.5 -124t-119 -287.5t-426 -439t434.5 -267q216 -148 123.5 -244t-196.5 -54q-942 -24 -901 217q523 658 700.5 833.5t34.5 214.5q-617 30 -606 118l3 21q1 12 15 16zM594 1569q-83 -89 -132 -94q-90 -8 -72 142
q4 78 -13 135v8q4 18 45 22l18 2q44 2 46 -62.5t27 -122.5q33 34 82 183q28 26 82 29q45 4 58 -55q-135 -186 -141 -187z" />
    <glyph glyph-name="zcaron" unicode="&#x17e;" horiz-adv-x="727" 
d="M170 975l19 1q88 -10 121 -6q131 13 262.5 22t158 -113.5t-111 -167t-244.5 -156t158 -77.5q198 -136 113.5 -224t-179.5 -49q-477 -39 -440 182q185 211 350 321t34 146q-267 7 -257 87l2 19q1 11 14 15zM418 1159q-83 -89 -132 -94q-90 -8 -72 142q4 78 -13 135v8
q4 18 45 22l18 2q44 2 46 -62.5t27 -122.5q33 34 82 183q28 26 82 29q45 4 58 -55q-135 -186 -141 -187z" />
    <glyph glyph-name="circumflex" unicode="&#x2c6;" horiz-adv-x="506" 
d="M229 1320q79 92 129 99q89 12 77 -139q-1 -77 18 -134l1 -8q-3 -18 -44 -24l-18 -2q-43 -5 -48 60t-33 122q-31 -36 -74 -187q-27 -27 -80 -33q-45 -6 -61 54q127 191 133 192z" />
    <glyph glyph-name="tilde" unicode="&#x2dc;" horiz-adv-x="781" 
d="M420 1133q131 -70 233.5 43.5t59.5 164t-108 -24.5q-57 -67 -132 -26q-9 7 -21 13q-21 15 -40 21q-1 1 -3 1q-140 65 -244.5 -28t-57.5 -137.5t113 17.5q48 46 91.5 18.5t108.5 -62.5z" />
    <glyph glyph-name="endash" unicode="&#x2013;" horiz-adv-x="1196" 
d="M114 639v168h968v-168h-968z" />
    <glyph glyph-name="emdash" unicode="&#x2014;" horiz-adv-x="1196" 
d="M114 639v168h968v-168h-968z" />
    <glyph glyph-name="quoteleft" unicode="&#x2018;" horiz-adv-x="281" 
d="M92 1473h9q88 8 155 -16v-4q-15 -21 -43 -95q-34 -39 -86 -188l-6 -1h-6q-61 0 -63 74.5t19 124.5v9q0 12 22 47q8 15 8 25v4q0 3 -16 16v1q1 3 7 3z" />
    <glyph glyph-name="quoteright" unicode="&#x2019;" horiz-adv-x="281" 
d="M92 1473h9q88 8 155 -16v-4q-15 -21 -43 -95q-34 -39 -86 -188l-6 -1h-6q-61 0 -63 74.5t19 124.5v9q0 12 22 47q8 15 8 25v4q0 3 -16 16v1q1 3 7 3z" />
    <glyph glyph-name="quotesinglbase" unicode="&#x201a;" horiz-adv-x="306" 
d="M88 125h9q88 8 155 -16v-4q-15 -21 -43 -95q-34 -39 -86 -188l-6 -1h-6q-61 0 -63 74.5t19 124.5v9q0 12 22 47q8 15 8 25v4q0 3 -16 16v1q1 3 7 3z" />
    <glyph glyph-name="quotedblleft" unicode="&#x201c;" horiz-adv-x="500" 
d="M92 1473h9q88 9 155 -20v-5q-15 -26 -43 -118q-34 -48 -86 -233l-6 -1h-6q-61 0 -63 92t19 154v12q0 14 22 58q8 18 8 31v5q0 3 -16 20v1q1 4 7 4zM291 1468h9q88 10 155 -20v-5q-15 -26 -43 -118q-34 -48 -86 -233l-6 -1h-6q-61 0 -63 92.5t19 154.5v11q0 15 22 58
q8 19 8 31v5q0 4 -16 20v1q1 4 7 4z" />
    <glyph glyph-name="quotedblright" unicode="&#x201d;" horiz-adv-x="500" 
d="M92 1473h9q88 9 155 -20v-5q-15 -26 -43 -118q-34 -48 -86 -233l-6 -1h-6q-61 0 -63 92t19 154v12q0 14 22 58q8 18 8 31v5q0 3 -16 20v1q1 4 7 4zM291 1468h9q88 10 155 -20v-5q-15 -26 -43 -118q-34 -48 -86 -233l-6 -1h-6q-61 0 -63 92.5t19 154.5v11q0 15 22 58
q8 19 8 31v5q0 4 -16 20v1q1 4 7 4z" />
    <glyph glyph-name="quotedblbase" unicode="&#x201e;" horiz-adv-x="488" 
d="M95 182h9q88 9 155 -20v-5q-15 -26 -43 -118q-34 -48 -86 -233l-6 -1h-6q-61 0 -63 92t19 154v12q0 14 22 58q8 18 8 31v5q0 3 -16 20v1q1 4 7 4zM294 177h9q88 10 155 -20v-5q-15 -26 -43 -118q-34 -48 -86 -233l-6 -1h-6q-61 0 -63 92.5t19 154.5v11q0 15 22 58
q8 19 8 31v5q0 4 -16 20v1q1 4 7 4z" />
    <glyph glyph-name="bullet" unicode="&#x2022;" horiz-adv-x="710" 
d="M533.5 760.5q64.5 -63.5 64.5 -153.5t-64.5 -153.5t-156.5 -63.5t-156.5 63.5t-64.5 153.5t64.5 153.5t156.5 63.5t156.5 -63.5z" />
    <glyph glyph-name="ellipsis" unicode="&#x2026;" horiz-adv-x="2048" 
d="M185 267h21q77 0 95 -111v-5q0 -83 -100 -90q-73 0 -111 100v21q0 68 95 85zM868 267h21q77 0 95 -111v-5q0 -83 -100 -90q-73 0 -111 100v21q0 68 95 85zM1551 267h21q77 0 95 -111v-5q0 -83 -100 -90q-73 0 -111 100v21q0 68 95 85z" />
    <glyph glyph-name="guilsinglleft" unicode="&#x2039;" horiz-adv-x="976" 
d="M107 669l-6 -160l784 -315l-3 201l-566 199l569 201v199z" />
    <glyph glyph-name="guilsinglright" unicode="&#x203a;" horiz-adv-x="957" 
d="M101 997v-199l573 -201l-570 -199l-3 -201l790 315l-6 160z" />
    <glyph glyph-name="Euro" unicode="&#x20ac;" horiz-adv-x="1285" 
d="M481 483q-10 -101 12 -181q100 -274 339 -270q57 18 71 39l27 45q24 127 142.5 135.5t61.5 -164.5l-65 -112q-156 -187 -303 -187q-135 0 -302 135q-143 126 -134 141q-79 55 -139 255q-8 85 12 192l-210 22l19 129l223 -23q19 60 45 126l-249 26l20 129l282 -29
q3 6 5 12q169 365 482 519q215 103 320 103q54 0 121 -173v-14q0 -29 -171 -32q-98 -24 -247 -122q-223 -149 -223 -261q-14 -30 -27 -59l321 -33l-19 -129l-353 36q-24 -66 -39 -127l373 -38l-20 -129z" />
    <glyph glyph-name="trademark" unicode="&#x2122;" horiz-adv-x="1278" 
d="M215 1428q2 2 5 2h9q53 10 98 -4q19 -1 37 -3h19q21 1 90 -11q29 -5 48 -4l8 1q6 0 29 12h3q6 -1 6 -4v-6q18 -59 -24 -106h-8q-37 7 -163 19q-13 -57 -30 -157q-34 -89 -86 -432l-6 -2h-7q-61 0 -63.5 170t18.5 286v22q0 26 22 107q4 15 7 28q-93 11 -241 23l-3 4v4
q-2 41 141 48q48 3 91 3zM937 1355q16 -41 21 -41q58 62 98 62q73 0 110 -367q24 -33 84 -83v-5q-4 -13 -37 -13h-15q-83 0 -120.5 52.5t-38.5 191.5t-32 139q-27 0 -85 -350q-24 -16 -63 -34q-36 0 -44 44q22 74 27 219.5t-8 146t-32 -8.5q-93 -41 -114 -353
q-24 -17 -72 -33q-37 0 -44 44q73 353 73 406q0 13 -9 49v8q1 5 6 5h9q36 0 81 -62q15 -41 20 -41q53 57 96.5 71.5t88.5 -47.5z" />
    <glyph glyph-name="uniF002" unicode="&#xf002;" horiz-adv-x="1009" 
d="M410 673l-83 -730q-38 -196 -173 -341q-86 -72 -119 -72h-5q-16 4 -25 37q1 17 91 348q73 543 104 784q-72 13 -152 19l-4 6l-1 6q-1 9 119 59q28 11 51 18q9 71 9 81q6 142 163 313q91 97 288 141h31q10 0 20 -31q-1 -22 -140 -94q-141 -164 -145 -256l-1 -37l-13 -113
q35 -6 60 -4l10 1q8 0 50 -6h3q7 0 8 -5l1 -9q15 -59 -37 -127l-11 -1q-29 6 -99 13zM675 1466h15q143 36 253 -75v-20q-25 -98 -71 -450q-55 -185 -139 -895l-10 -6h-10q-99 0 -102.5 353.5t30.5 592.5v46q0 53 35 222q15 70 15 118v19q0 14 -26 74v7q1 14 10 14z" />
    <glyph glyph-name="uniF002" unicode="&#xfb02;" horiz-adv-x="1009" 
d="M410 673l-83 -730q-38 -196 -173 -341q-86 -72 -119 -72h-5q-16 4 -25 37q1 17 91 348q73 543 104 784q-72 13 -152 19l-4 6l-1 6q-1 9 119 59q28 11 51 18q9 71 9 81q6 142 163 313q91 97 288 141h31q10 0 20 -31q-1 -22 -140 -94q-141 -164 -145 -256l-1 -37l-13 -113
q35 -6 60 -4l10 1q8 0 50 -6h3q7 0 8 -5l1 -9q15 -59 -37 -127l-11 -1q-29 6 -99 13zM675 1466h15q143 36 253 -75v-20q-25 -98 -71 -450q-55 -185 -139 -895l-10 -6h-10q-99 0 -102.5 353.5t30.5 592.5v46q0 53 35 222q15 70 15 118v19q0 14 -26 74v7q1 14 10 14z" />
  </font>
</defs>
</svg>
